<svg width="980" height="959" viewBox="0 0 259.292 253.735" xmlns="http://www.w3.org/2000/svg"><g style="clip-rule:evenodd;fill-rule:evenodd;image-rendering:optimizeQuality;shape-rendering:geometricPrecision;text-rendering:geometricPrecision"><path style="opacity:.991" fill="#6ca1ff" d="M534.5 27.5c2.064.187 4.064.687 6 1.5l366 177a179538.51 179538.51 0 0 1-584 101.5c-1.432-.233-1.932-.9-1.5-2a83094.035 83094.035 0 0 0 213.5-278z" transform="translate(-7.54 -7.276) scale(.26458)"/></g><g style="clip-rule:evenodd;fill-rule:evenodd;image-rendering:optimizeQuality;shape-rendering:geometricPrecision;text-rendering:geometricPrecision"><path style="opacity:.988" fill="#94c5ff" d="M472.5 41.5c1.855-.228 2.688.439 2.5 2l-445.5 579-1-1.5C59.745 484.52 90.912 348.02 122 211.5a172137.013 172137.013 0 0 0 350.5-170Z" transform="translate(-7.54 -7.276) scale(.26458)"/></g><g style="clip-rule:evenodd;fill-rule:evenodd;image-rendering:optimizeQuality;shape-rendering:geometricPrecision;text-rendering:geometricPrecision"><path style="opacity:.994" fill="#4278f4" d="M919.5 242.5h6a48119.041 48119.041 0 0 0 83 365c-.33.333-.67.667-1 1a72648.897 72648.897 0 0 1-251-202.5c-11.77-7.351-21.937-5.518-30.5 5.5a152312.12 152312.12 0 0 1-408 519 247856.64 247856.64 0 0 1-23.5-580 122029.93 122029.93 0 0 0 625-108z" transform="translate(-7.54 -7.276) scale(.26458)"/></g><g style="clip-rule:evenodd;fill-rule:evenodd;image-rendering:optimizeQuality;shape-rendering:geometricPrecision;text-rendering:geometricPrecision"><path style="opacity:.991" fill="#a1c3ff" d="M256.5 389.5c.821 3.141 1.321 6.475 1.5 10 7.84 187.661 15.173 375.327 22 563a83765.768 83765.768 0 0 1-235.5-296 68125.806 68125.806 0 0 1 212-277z" transform="translate(-7.54 -7.276) scale(.26458)"/></g><g style="clip-rule:evenodd;fill-rule:evenodd;image-rendering:optimizeQuality;shape-rendering:geometricPrecision;text-rendering:geometricPrecision"><path style="opacity:.994" fill="#004ad1" d="M745.5 447.5c1.422.209 2.755.709 4 1.5a36264.47 36264.47 0 0 0 250 203 14.363 14.363 0 0 1 4 5 37535.51 37535.51 0 0 1-250 312.5 38200.145 38200.145 0 0 1-244-220 49789.054 49789.054 0 0 0 236-302z" transform="translate(-7.54 -7.276) scale(.26458)"/></g><g style="clip-rule:evenodd;fill-rule:evenodd;image-rendering:optimizeQuality;shape-rendering:geometricPrecision;text-rendering:geometricPrecision"><path style="opacity:.99" fill="#2e3092" d="M484.5 780.5a94.353 94.353 0 0 1 16 12.5 29158.534 29158.534 0 0 0 214 193 38201.4 38201.4 0 0 1-391 0 81749.528 81749.528 0 0 0 161-205.5z" transform="translate(-7.54 -7.276) scale(.26458)"/></g><g style="clip-rule:evenodd;fill-rule:evenodd;image-rendering:optimizeQuality;shape-rendering:geometricPrecision;text-rendering:geometricPrecision"><path style="opacity:.268" fill="#4278f4" d="M742.5 982.5c1.025.397 1.192 1.063.5 2-.837 1.507-2.004 2.007-3.5 1.5a14.698 14.698 0 0 0 3-3.5z" transform="translate(-7.54 -7.276) scale(.26458)"/></g></svg>