<svg viewBox="0 0 1770.045 645.004" xml:space="preserve" width="1770.045" height="645.004" xmlns="http://www.w3.org/2000/svg"><path d="M887.642 165.11c21.736 0 42.764 4.319 62.518 12.744 19.754 8.638 37.17 20.037 51.898 34.551 14.585 14.515 26.338 31.436 34.976 50.624 8.78 19.258 13.169 39.649 13.169 61.03v291.35c0 8.425-3.965 15.506-10.408 21.17-6.585 5.664-13.948 8.425-22.373 8.425-9.77 0-17.984-3.115-24.144-9.204-6.16-6.089-9.416-13.523-9.416-22.373v-157.18c-36.18 18.054-68.112 27.117-96.29 27.117-22.799 0-43.969-4.32-63.935-12.532-19.754-8.213-36.958-19.612-51.544-34.127-14.372-14.514-25.771-31.436-33.984-50.623-8.355-19.258-12.39-39.861-12.39-61.81 0-21.807 4.177-42.41 12.956-61.668 8.78-19.47 20.391-36.321 35.189-50.623 14.585-14.515 31.79-25.914 51.543-34.127 19.683-8.638 40.428-12.744 62.235-12.744zm96.22 159.02c0-12.531-2.408-24.71-7.364-36.108-4.814-11.4-11.611-21.382-20.39-29.808-8.568-8.638-18.763-15.293-30.375-20.39-11.611-5.099-24.355-7.435-38.162-7.435-12.957 0-25.134 2.336-36.746 7.08-11.611 4.886-21.736 11.612-30.374 20.037-8.78 8.638-15.789 18.621-20.745 30.02-5.168 11.4-7.788 23.577-7.788 36.746 0 13.17 2.407 25.489 7.363 36.888 4.956 11.399 11.612 21.382 19.966 30.232 8.567 8.85 18.763 15.718 30.587 20.604 11.753 5.097 24.356 7.646 37.737 7.646 12.957 0 25.135-2.336 36.746-6.868 11.612-4.743 21.949-11.186 30.728-19.824 8.992-8.426 16.002-18.621 21.17-30.232 5.098-11.683 7.647-24.427 7.647-38.587zM1125.324 0c3.964 0 8 .212 11.965 1.982s7.363 4.32 10.408 7.647c2.761 3.115 5.168 6.868 7.01 10.833 1.77 3.894 2.619 8.071 2.619 12.532V193.36c16.992-11.4 34.126-19.046 51.119-22.94 17.205-3.894 32.144-5.877 44.534-5.877 20.957 0 41.348 3.894 61.314 11.753 19.754 7.86 37.95 19.47 54.305 34.764v-.566c15.79 15.718 27.33 32.569 35.189 50.623 7.788 17.842 11.753 38.658 11.753 62.447 0 22.02-4.39 42.623-12.957 61.81-8.78 19.258-20.603 36.109-35.188 50.623-14.798 14.302-31.932 25.701-51.544 34.127-19.541 8.213-40.357 12.39-62.093 12.39-21.595 0-41.915-4.106-61.314-12.744-19.4-8.426-36.534-20.037-51.756-34.551-15.152-14.302-27.33-31.224-36.18-50.624-8.992-19.258-13.382-39.649-13.382-61.03v-293.9c0-7.434 3.399-14.302 9.983-20.816 6.797-6.301 13.807-8.85 21.383-8.85Zm31.931 323.564c0 13.17 2.62 25.347 7.788 36.888 5.169 11.399 12.178 21.17 20.958 29.807 8.992 8.426 19.187 15.294 30.728 20.391 11.611 4.886 24.002 7.435 36.958 7.435 12.815 0 25.135-2.55 36.959-7.435 11.965-5.097 22.16-11.965 30.728-20.39 8.78-8.638 15.789-18.48 20.745-29.808 5.168-11.612 7.788-23.79 7.788-36.888 0-12.744-2.62-24.922-7.788-36.534-5.027-11.611-11.966-21.594-20.745-30.232-8.567-8.425-18.763-15.293-30.728-20.39-11.753-4.886-24.144-7.435-36.959-7.435-12.956 0-25.347 2.549-36.958 7.859-11.612 5.31-21.736 12.39-30.728 21.382-8.78 9.063-15.79 19.258-20.958 30.657-5.168 11.329-7.788 22.87-7.788 34.693zm451.574-152.578c21.949 0 42.552 4.32 61.952 12.745 19.4 8.637 36.533 20.249 51.118 34.55 14.798 14.515 26.551 31.437 35.189 50.624 8.78 19.258 12.957 39.862 12.957 61.81 0 21.807-4.178 42.41-12.603 61.456-8.567 19.046-19.966 35.755-34.551 50.27-14.373 14.514-31.578 25.913-51.12 34.126-19.54 8.425-40.71 12.532-63.508 12.532-22.374 0-43.119-3.894-62.943-11.753-19.542-8.072-36.746-19.046-51.544-33.348-14.585-14.16-26.197-30.799-34.764-50.27-8.354-19.257-12.602-40.215-12.602-63.013 0-22.02 3.965-42.41 12.39-61.456 8.213-19.046 19.541-35.755 34.339-50.057 14.798-14.16 31.932-25.488 51.898-34.126 19.895-8.355 41.277-13.098 63.792-14.09zm-.566 65.209c-12.957 0-25.347 2.336-37.171 7.292-11.753 4.744-21.949 11.4-30.728 20.037-8.567 8.426-15.577 18.48-20.745 29.808-5.027 11.399-7.576 23.93-7.576 37.525 0 12.744 2.62 24.922 7.576 36.533 5.168 11.612 12.178 21.807 20.745 30.445 8.78 8.85 18.975 15.718 30.728 20.816 11.753 5.098 24.143 7.434 37.17 7.434 12.957 0 25.348-2.336 37.172-7.434 11.824-5.098 21.948-11.966 30.728-20.816 8.567-8.638 15.576-18.833 20.745-30.445 5.027-11.611 7.575-23.789 7.575-36.533-1.203-25.914-10.62-47.72-27.966-65.35-17.347-17.842-39.932-27.471-67.687-29.241h-.566z" style="stroke-width:1;fill:#60b0f4"/><path d="M327.175.212C146.63.212 0 144.082 0 321.794c0 177.642 146.63 321.582 327.175 321.582 180.757 0 327.387-143.94 327.387-321.582C654.562 144.082 507.932.212 327.175.212zm0 595.656c-9.912 0-19.683-.496-29.383-1.558V322.998c0-13.948-2.76-27.259-8.567-39.65-5.593-12.531-13.169-23.576-22.798-32.993-9.558-9.417-20.745-16.85-33.772-22.586-12.957-5.522-26.551-8.213-40.711-8.213s-27.755 2.55-40.57 8.072c-12.815 5.522-24.002 12.744-33.347 22.16-9.559 9.417-17.347 20.392-22.94 32.994-5.594 12.532-8.355 26.126-8.355 40.216 0 14.302 2.62 27.683 8 40.215 5.382 12.532 12.816 23.577 22.162 32.994 9.346 9.416 20.603 16.85 33.56 22.16 12.957 5.523 26.763 8.214 41.56 8.214 18.409 0 39.154-5.877 62.73-17.488V586.38C136.01 555.015 48.57 448.458 48.57 321.794 48.57 170.42 173.394 47.72 327.175 47.72c7.93 0 15.789.425 23.577 1.062v275.773c0 13.948 2.974 27.259 8.567 39.862 5.593 12.532 13.17 23.577 22.798 32.993 9.558 9.205 20.958 16.851 33.773 22.374 12.956 5.522 26.55 8.425 40.71 8.425 14.161 0 27.755-2.761 40.57-8.213 12.815-5.522 24.002-12.744 33.56-22.16 9.558-9.417 17.205-20.392 22.798-32.994 5.806-12.532 8.567-25.914 8.567-40.216s-2.76-27.683-8-40.215c-5.381-12.532-12.815-23.577-22.374-32.994-9.416-9.417-20.603-16.85-33.56-22.16-12.815-5.523-26.763-8.214-41.56-8.214-18.196 0-39.154 5.877-62.73 17.7V55.65c121.778 29.383 212.121 137.356 212.121 266.144 0 151.374-124.823 274.074-278.817 274.074zm-72.501-272.87c0 9.204-1.628 17.488-5.027 25.134-3.398 7.435-8 14.16-13.806 19.613-5.806 5.522-12.39 9.84-19.966 12.956-7.576 2.974-15.577 4.32-24.002 4.32-8.567 0-16.78-1.559-24.568-4.886-7.789-3.115-14.373-7.647-19.754-13.382-5.593-5.664-9.983-12.39-13.17-19.824-3.185-7.293-4.814-15.293-4.814-23.931 0-8.426 1.77-16.497 5.027-23.931 3.399-7.434 8-13.948 13.594-19.47 5.593-5.523 12.178-9.984 19.754-13.17 7.576-2.974 15.576-4.531 24.002-4.531 8.991 0 17.346 1.557 24.78 4.885 7.576 3.115 14.16 7.647 19.966 13.17 5.594 5.663 9.983 12.177 13.17 19.47 3.186 7.434 4.814 15.293 4.814 23.577zm139.196 1.557c0-9.204 1.77-17.488 5.027-25.134 3.399-7.434 8-14.16 13.807-19.612a61.964 61.964 0 0 1 19.966-12.745c7.576-3.115 15.576-4.531 24.002-4.531 8.779 0 16.992 1.558 24.568 4.885 7.788 3.328 14.373 7.647 19.966 13.382 5.38 5.876 9.77 12.39 12.957 19.824 3.186 7.435 4.814 15.294 4.814 23.931 0 8.426-1.628 16.497-5.027 23.931-3.398 7.435-7.788 13.948-13.594 19.47-5.593 5.665-12.178 9.984-19.753 13.17a62.55 62.55 0 0 1-24.002 4.744c-8.992 0-17.205-1.77-24.78-4.886-7.577-3.327-14.161-7.859-19.755-13.381-5.805-5.523-10.195-11.966-13.381-19.47-3.186-7.506-4.815-15.365-4.815-23.578z" style="stroke-width:1;fill-rule:evenodd;clip-rule:evenodd;fill:#0b2239"/></svg>