<svg viewBox="0 0 50.6 50.6" style="enable-background:new 0 0 50.6 50.6" xml:space="preserve" xmlns="http://www.w3.org/2000/svg"><path d="M.6 0H5c.3 0 .6.3.6.6V50c0 .3-.3.6-.6.6H.6c-.3 0-.6-.2-.6-.6V.6C0 .3.3 0 .6 0zm11.2 0h4.4c.3 0 .6.3.6.6V50c0 .3-.3.6-.6.6h-4.4c-.3 0-.6-.3-.6-.6V.6c.1-.3.3-.6.6-.6zm11.3 0h4.4c.3 0 .6.3.6.6V50c0 .3-.3.6-.6.6h-4.4c-.3 0-.6-.3-.6-.6V.6c0-.3.3-.6.6-.6zm11.2 0h4.4c.3 0 .6.3.6.6V50c0 .3-.3.6-.6.6h-4.4c-.3 0-.6-.3-.6-.6V.6c0-.3.3-.6.6-.6zm11.3 19.7H50c.3 0 .6.3.6.6v10.1c0 .3-.3.6-.6.6h-4.4c-.3 0-.6-.3-.6-.6V20.3c0-.3.3-.6.6-.6z" style="fill:#fcfe76;fill-opacity:1"/></svg>