<svg height="533.333" width="688.889" viewBox="-29.998 -38.707 149.248 154.827" xmlns="http://www.w3.org/2000/svg"><g fill-rule="evenodd" fill="none"><path fill="#1a1919" d="m27.8 78.686.004 37.434h10.57V78.687H27.8Zm-83.166-.05v37.484H-44.7V87.657l8.263.003c2.737 0 4.686.681 6.005 2.088 1.673 1.782 2.355 4.655 2.355 9.912v16.46h10.334V95.41c0-14.78-9.422-16.775-18.64-16.775h-18.983Zm100.188.051v37.433H61.97c9.136 0 12.117-1.52 15.342-4.926 2.28-2.392 3.753-7.642 3.753-13.379 0-5.26-1.247-9.956-3.422-12.879-3.917-5.227-9.56-6.249-17.983-6.249zm10.487 8.15h4.546c6.594 0 10.86 2.962 10.86 10.646 0 7.686-4.266 10.647-10.86 10.647h-4.546V86.838zm-42.752-8.15-8.823 29.668-8.455-29.666-11.412-.002L-4.06 116.12h15.238l12.169-37.433h-10.79zm73.427 37.433h10.574V78.69l-10.576-.003zM115.62 78.7l-14.763 37.407h10.425l2.336-6.612h17.47l2.21 6.612h11.32l-14.876-37.41-14.122.004zm6.863 6.825 6.404 17.524h-13.01z"/><path fill="#76b900" d="M13.823-8.999v-8.993a67.728 67.728 0 0 1 2.653-.136C41.072-18.9 57.209 3.006 57.209 3.006S39.78 27.212 21.094 27.212c-2.692 0-5.1-.433-7.271-1.162V-1.22c9.575 1.156 11.5 5.386 17.258 14.982L43.884 2.967S34.539-9.29 18.784-9.29c-1.715 0-3.353.12-4.961.292zm0-29.707v13.433c.882-.07 1.766-.126 2.653-.158C50.68-26.583 72.965 2.621 72.965 2.621S47.368 33.745 20.703 33.745c-2.443 0-4.73-.225-6.88-.606v8.303c1.838.234 3.742.372 5.73.372 24.815 0 42.76-12.672 60.138-27.67 2.879 2.306 14.675 7.918 17.1 10.377-16.523 13.832-55.028 24.98-76.857 24.98a63.43 63.43 0 0 1-6.111-.318v11.67h94.316v-99.56H13.824Zm0 64.756v7.09C-9.13 29.047-15.5 5.19-15.5 5.19S-4.48-7.02 13.823-8.999v7.78c-.014 0-.024-.005-.036-.005-9.604-1.154-17.108 7.82-17.108 7.82S.883 21.702 13.823 26.05zM-26.941 4.155s13.602-20.073 40.764-22.148v-7.28C-16.261-22.859-42.313 2.62-42.313 2.62s14.754 42.658 56.137 46.563v-7.74C-16.544 37.621-26.941 4.155-26.941 4.155Z"/></g></svg>