<svg id="a" data-name="Слой 2 (копия2)" viewBox="0 0 299.999 306.09" version="1.1" width="299.999" height="306.09" xmlns="http://www.w3.org/2000/svg"><defs id="defs2"><radialGradient id="b" data-name="Безымянный градиент 3" cx="803.42" cy="387.09" fx="803.42" fy="387.09" r="62.34" gradientTransform="matrix(0 1 -.45 0 923.306 -329.951)" gradientUnits="userSpaceOnUse"><stop offset="0" stop-color="#fff" stop-opacity=".4" id="stop1"/><stop offset="1" stop-color="#fff" stop-opacity="0" id="stop2"/></radialGradient><style id="style1">.c{fill:#fff}.d{fill:#b3d9f8}.f{fill:#60b0f4}.h{fill:#ccc}.i{fill:#666}</style></defs><g id="g81" transform="translate(-141.107 -141.02) scale(.44733)"><g id="g60"><path class="f" d="M733.34 545.57c5.22-15.8 11.44-27.22 13.87-31.4 3.08-5.28 8.23-14.13 17.15-23.71 2.15-2.31 8.1-8.41 16.78-14.96 3.4-2.57 9.73-7.35 18.97-12.04 15.12-7.68 28.58-10.29 35.27-11.15l-.06-1c-3.16-.06-6.35.01-9.47.22-5.8.38-14.98 1.53-25.75 4.78-4.52 1.37-12.94 3.91-22.81 9.57-5.48 3.14-16.27 10.23-26.86 22.45-9.45 10.89-14.35 20.88-17.28 26.84-5.02 10.22-7.63 18.77-9.18 23.88-3.1 10.17-4.55 18.19-5.51 23.5-1.94 10.76-2.91 16.16-2.94 23.89-.02 8.68 1.25 17.85 3.68 26.5a98.575 98.575 0 0 0 6.8 17.56l1.85 3.69-.91-4.02c-.46-2.02-.78-4.2-1.27-7.55-.98-6.74-1.45-13.42-1.46-20.44 0-9.08.73-18.41 2.19-27.75 1.55-9.9 3.88-19.61 6.94-28.85z" id="path2"/><path class="f" d="M756.96 521.05c.44.23.92.34 1.42.34.58 0 1.18-.15 1.78-.45 1.07-.54 2-1.49 2.63-2.7 1.33-2.54.87-5.41-1.03-6.39-1.89-.99-4.51.27-5.84 2.81-.63 1.2-.88 2.52-.71 3.7.18 1.24.8 2.2 1.74 2.7z" id="path3"/><path class="f" d="m886.52 576.06.54 1.12.39-1.19c1.36-4.16 2.56-8.22 3.72-12.14 1.9-6.43 4.5-15.24 6.24-27.17 1.11-7.61 2.25-15.47 1.47-25.75-.57-7.43-1.21-15.84-5.91-25.45-4.29-8.77-10-14.69-14.04-18.11-2.71-2.29-9.9-8.38-21.08-11.09-8.42-2.04-15.22-1.19-21.79-.38-6.65.83-13.53 2.61-19.9 5.16-4.07 1.63-7.5 3.54-14.34 7.35-7.66 4.27-12.28 6.84-18.35 11.01-7.3 5.01-13.06 8.97-19.13 15.83-1.12 1.26-4.51 5.1-9.94 14.36-6.22 10.6-11.8 23.04-16.16 35.98-3.76 11.19-6.6 22.8-8.44 34.51-1.45 9.26-2.17 17.91-2.2 26.44-.03 10.34-.06 16.59 2.97 24 3.6 8.84 9.32 14.25 11.47 16.29 7.05 6.67 14.24 9.55 18.1 11.09 11.6 4.63 21.48 4.72 30.21 4.8 1.05 0 2.11.02 3.18.02 5.7 0 11.77-.27 19.29-2.23 11.64-3.04 19.41-8.25 23.59-11.05 10.38-6.96 16.51-14.27 22.44-21.33 5.87-7 11.19-14.66 15.8-22.78 2.89-5.09 5.4-10.17 7.67-15.52l.58-1.36-1.29.73c-1.9 1.08-3.88 1.23-5.42.43-1.47-.77-2.43-2.31-2.7-4.35l-.22-1.65-.73 1.5c-.68 1.38-1.35 2.69-2.06 4-5.83 10.74-12.09 18.08-15.3 21.5-9.14 9.73-17.89 15.02-22.6 17.86-6.59 3.98-14.06 8.5-25.13 11.29-4.56 1.15-16.67 4.21-31.26 1.09-4.85-1.04-9.87-2.11-15.2-5.78-8.53-5.87-11.91-14.29-13.73-18.82-5.16-12.83-3.9-24.26-2.9-33.45 1.3-11.82 4.39-20.25 7.66-29.18 4.6-12.53 9.54-21.38 13.52-28.49 4.57-8.18 8.18-14.63 14.6-22.63 4.96-6.18 9.65-12.02 17.84-17.85 4.06-2.89 11.62-8.26 23.26-10.91 10.32-2.34 19.13-1.49 24.69-.36 2.01.41 5.04 1.02 8.44 2.15l1.06.35-.44-1.03c-1.04-2.46-.72-5.83.83-8.81 2.42-4.62 7.03-7 10.28-5.3 3.25 1.7 3.93 6.84 1.52 11.46-1.4 2.68-3.55 4.67-5.92 5.48l-1.1.38 1.03.54c3.92 2.08 7.42 4.7 10.4 7.8 4.54 4.72 6.78 9.42 8.59 13.19l.11.23c5.49 11.48 5.95 21.65 6.18 26.54.56 12.4-1.98 21.39-5.84 35-1.37 4.84-2.54 8.88-4.08 13.17l-.6 1.68 1.39-1.12c2.25-1.81 4.75-2.29 6.67-1.28.9.47 1.6 1.22 2.08 2.23zm-123.11-67.37c3.01 1.57 3.63 6.33 1.4 10.61-1.1 2.1-2.71 3.76-4.54 4.68-1.78.89-3.54.97-4.97.23-3.01-1.57-3.63-6.33-1.4-10.61 2.24-4.28 6.5-6.48 9.51-4.91zm4.89 141.48c-2.27 4.35-6.61 6.59-9.67 4.99-3.06-1.6-3.69-6.44-1.42-10.79 1.78-3.4 4.81-5.51 7.51-5.51.76 0 1.49.17 2.16.52 3.06 1.6 3.69 6.44 1.42 10.79z" id="path4"/><path class="f" d="M765.2 642.61c-1.92-1-4.57.27-5.92 2.85-1.34 2.57-.88 5.48 1.04 6.48.45.23.93.35 1.44.35.59 0 1.2-.15 1.81-.46 1.08-.54 2.03-1.52 2.67-2.74 1.34-2.57.88-5.48-1.04-6.48z" id="path5"/><path class="f" d="M614.38 392.28c-1.57 1.94-3.18 4.13-4.92 6.69l-.23.34 11.36 11.62.36-.41c1.87-2.14 3.78-4.27 5.69-6.32l.33-.36-12.24-11.99z" id="path6"/><path class="f" d="M629.6 379.26c-1.72.76-3.49 1.84-5.39 3.31l-.45.35 11.94 12.04.36-.34c1.45-1.39 2.91-2.75 4.35-4.05l.39-.35-10.88-11.09-.32.14z" id="path7"/><path class="f" d="M621.22 385.08c-1.6 1.41-3.14 2.94-4.68 4.67l-.32.36 12.32 12.07.35-.37c1.6-1.68 3.22-3.33 4.82-4.9l.36-.35L622 384.4l-.78.69z" id="path8"/><path class="f" d="M607.58 401.79c-3.97 6.05-7.1 11.22-9.84 16.28-2.87 5.39-6.38 11.2-10.74 17.76-2.78 4.17-5.04 7.73-7.04 11.6-3.91 7.93-7.77 16.76-11.51 25.31-1.85 4.24-3.61 8.24-5.37 12.17-.33.78-.9 2.06-1.51 3.45-.98 2.21-2.08 4.71-2.57 5.95-2.24 5.68-3.44 11.57-4.25 16.07-1.5 8.97-2.29 18.45 1.98 26.99.15.29.29.58.44.88.21.42.42.84.64 1.26l.91 1.74.04-1.97c.41-21.43 10.08-49.69 27.24-79.57 9.45-16.46 20.79-32.61 32.77-46.69l.3-.35-11.15-11.41-.34.52z" id="path9"/><path class="f" d="M696.59 378.74c2.8 3.34 3.89 6.48 5.4 10.83 1.95 5.61 2.9 11.13 3.64 21.11.41 5.51.92 12.36.73 22.66-.14 7.57-.32 17.94-2.56 31.42-1.58 9.54-3.92 19.01-6.94 28.12-2.29 6.9-6.42 17.76-13.15 30.32-4 7.47-7.79 14.53-14.6 22.99-3.42 4.24-8.58 10.66-17.12 17.13-5.66 4.29-12.21 8.06-18.94 10.92-3.61 1.53-10.33 4.39-19.65 5.83-9.03 1.39-15.83.69-26.13-.36h-.11c-4.52-.47-7.78-1.1-11.25-2.19-1.47-.46-2.94-.99-4.37-1.59l-.11-.04h-.11c-2.75.15-5.51.12-8.22-.1l-.65-.05.11.64c.86 5.07 2.06 10.1 3.57 14.96 1.05 3.36 2.99 9.63 6.99 17.29 2.54 4.87 4.74 9.08 8.49 13.29 5.08 5.69 10.61 8.52 18.47 12.21 13.07 6.12 19.62 9.19 31.55 13.2 13.05 4.39 22.44 6.73 36.66 10.27 25.28 6.29 66.8 10.11 68.56 10.27 3.36.31 6.5.45 9.36.45 9.29 0 15.76-1.57 17.91-4.5l.43-.59-.7-.2c-3.56-1-6.92-2.24-10.26-3.82-3.41-1.61-9.12-4.29-14.88-9.8-1.59-1.52-4.54-4.34-7.16-8.43l-.07-.09a51.783 51.783 0 0 1-4.43-4.97c-6.16-7.89-8.39-15.52-10.53-22.9-1.63-5.6-3.65-14.7-4.01-26.24-.44-14.2 1.93-24.88 4.02-34.3.92-4.16 3.66-15.35 9.13-29.22 5.28-13.4 8.47-21.49 15.68-31.01 7.45-9.84 15.34-16 20.05-19.68 3.99-3.12 10.66-8.33 20.78-13.12 11.59-5.49 21.36-7.37 26.61-8.38 11.14-2.15 19.53-2.17 26.27-2.19 10.67-.03 16.03-.05 22.54 2.17 3.96 1.35 7.77 3.3 11.3 5.79l.06.04c1.55.79 2.8 1.52 3.93 2.19 4.22 2.51 10.45 7.03 16.21 14.27l1.24 1.56-.35-1.96c-2.97-16.53-15.17-38.56-31.85-57.49-7.88-8.64-15.44-14.06-20.95-18.01-4.3-3.08-13.35-9.14-25.71-15.06a181.798 181.798 0 0 0-31.95-11.75c-8.7-2.3-21.84-5.79-39.31-5.88-10.88-.05-22.25 1.25-31.98 3.68-5.52 1.38-10.99 3.15-16.28 5.28l-.88.36.79.53c1.71 1.15 3.18 2.3 4.75 4.17z" id="path10"/><path class="f" d="M882.42 529.76c0-.48 0-.89-.01-1.21a91.41 91.41 0 0 0-.32-6.03l-.02-.28-10.34-5.06-.02.78c-.06 1.94-.19 3.95-.4 5.95l-.03.33 11.16 6.4v-.87z" id="path11"/><path class="f" d="M783.35 637.09c1.23.12 3.14.24 5.59.24 5.06 0 12.44-.54 20.95-2.82 9.63-2.58 19.06-7.04 27.26-12.89 11.02-7.86 17.2-16.29 21.72-22.45 5.13-6.99 14.53-21.79 19.86-42.28.21-.8.4-1.58.59-2.35l.09-.38-13.38-7.14-.19.55c-2.96 8.43-6.94 16.85-11.83 25.05-18.99 31.79-48.63 55.83-77.37 62.74l-2.49.6 2.53.39c2.18.33 4.46.55 6.67.76z" id="path12"/><path class="f" d="M882.76 577.06c-.96-.5-2.11-.46-3.25.11-1.08.54-2.03 1.52-2.67 2.74-.64 1.22-.89 2.55-.72 3.75.18 1.26.81 2.23 1.76 2.73.45.23.93.35 1.44.35.59 0 1.2-.15 1.81-.46 1.08-.54 2.03-1.52 2.67-2.74.64-1.22.89-2.55.72-3.75-.18-1.26-.81-2.23-1.76-2.73z" id="path13"/><path class="f" d="M879.83 509.75c-1.22-4.25-2.89-10.07-7.4-16.27a43.858 43.858 0 0 0-8.25-8.58l-2.51-1.98 1.78 2.66c5.02 7.5 7.79 16.66 8.23 27.22v.31l9.82 4.4-.15-.93c-.41-2.46-.9-4.7-1.52-6.84z" id="path14"/><path class="f" d="M869.29 535.78c-.55 2.36-1.2 4.77-1.94 7.18l-.13.41 13.14 6.39.12-.65c.39-2.05.73-4.14 1.02-6.21l.04-.32-12.1-7.49-.16.68z" id="path15"/><path class="f" d="M859.14 474.06c.47.24.98.37 1.51.37.62 0 1.26-.16 1.9-.48 1.14-.57 2.14-1.6 2.81-2.88.67-1.29.94-2.69.76-3.96-.19-1.33-.85-2.35-1.85-2.87-1-.53-2.22-.48-3.41.12-1.14.57-2.14 1.6-2.81 2.88-.67 1.29-.94 2.69-.76 3.96.19 1.33.85 2.35 1.85 2.87z" id="path16"/><path class="f" d="M882 538.56c.14-1.47.24-2.92.31-4.3v-.3l-11.37-7.04-.11.76c-.23 1.56-.51 3.16-.82 4.76l-.07.36 11.99 6.52z" id="path17"/><ellipse class="d" cx="453.08" cy="368.9" rx="19" ry="17.9" id="ellipse17"/><path class="d" d="M425.25 371.78c1.84 0 3.69-.19 5.5-.56l.44-.09-.04-.45c-.06-.65-.09-1.23-.09-1.79 0-11.03 9.08-20.2 20.66-20.88l.43-.03.04-.43c.07-.77.1-1.54.1-2.29 0-14.61-12.14-26.5-27.05-26.5s-27.05 11.89-27.05 26.5 12.14 26.5 27.05 26.5z" id="path18"/><path class="d" d="M416.1 489.7c4.93 0 8.94-3.92 8.94-8.74s-4.01-8.74-8.94-8.74-8.94 3.92-8.94 8.74 4.01 8.74 8.94 8.74z" id="path19"/><path class="d" d="M403.12 427.48a9.175 9.175 0 0 0-4.24-1.05c-4.93 0-8.94 3.92-8.94 8.74s4.01 8.74 8.94 8.74 8.94-3.92 8.94-8.74c0-2.69-1.24-5.19-3.41-6.86l-.12-.09h-.15c-.26-.03-.51-.05-.76-.08l.36-.34-.62-.33z" id="path20"/><path class="d" d="m389.39 427.34.36.24.29-.32c2.27-2.44 5.49-3.85 8.84-3.85 1.09 0 2.18.15 3.24.44l.42.12.17-.4c.47-1.08.71-2.23.71-3.41 0-4.82-4.01-8.74-8.94-8.74s-8.94 3.92-8.94 8.74c0 2.85 1.44 5.53 3.84 7.17z" id="path21"/><path class="d" d="M394.49 408.4c6.6 0 11.97 5.28 11.97 11.76 0 1.5-.29 2.97-.87 4.37l-.3.72.78-.03c8.55-.31 15.25-7.12 15.25-15.5 0-8.38-7.11-15.52-15.85-15.52-8.28 0-15.22 6.33-15.81 14.41l-.06.78.73-.27c1.33-.48 2.72-.73 4.15-.73z" id="path22"/><path class="d" d="M441.57 464.11c0 4.82 4.01 8.74 8.94 8.74s8.94-3.92 8.94-8.74-4.01-8.74-8.94-8.74-8.94 3.92-8.94 8.74z" id="path23"/><ellipse class="d" cx="471.39" cy="408.81" rx="8.94" ry="8.74" id="ellipse23"/><path class="f" d="M636.54 660.79c31.86 9.6 67.01 14.95 96.31 14.95 6.98 0 13.64-.3 19.83-.93l.52-.05-.69-4.82-.48.05c-5.95.57-9.98.52-10.02.52-13.32-.17-24.01-1.45-24.13-1.46-11.03-1.34-22.44-2.73-38.03-5.85a431.12 431.12 0 0 1-35.85-8.78c-9.77-2.85-19.1-5.96-28.53-9.51-20.46-7.71-25.92-11.78-27.71-13.12-5.89-4.39-11.22-9.82-15.42-15.69l-.24-.33-5 2.22.09.4c3.12 14.41 29.04 30.26 69.33 42.4z" id="path24"/><path class="f" d="M542.61 556.55c.46.24.96.35 1.47.35 1.71 0 3.58-1.26 4.65-3.3 1.39-2.66.91-5.67-1.07-6.71-.99-.52-2.18-.48-3.36.12-1.12.56-2.1 1.57-2.76 2.83-.66 1.26-.93 2.64-.75 3.88.19 1.3.83 2.31 1.82 2.82z" id="path25"/><path class="d" d="M445.02 427.9c-4.93 0-8.94 3.92-8.94 8.74s4.01 8.74 8.94 8.74 8.94-3.92 8.94-8.74-4.01-8.74-8.94-8.74z" id="path26"/><path class="f" d="M564.51 453.57c.48.25 1 .37 1.53.37 1.78 0 3.73-1.31 4.85-3.45 1.45-2.78.95-5.92-1.11-7-1.03-.54-2.27-.5-3.5.12-1.17.59-2.2 1.64-2.89 2.96-1.45 2.78-.95 5.92 1.11 7z" id="path27"/><path class="f" d="M644.29 379.35c-3.53-1.41-7.44-1.84-11.02-1.21l-.94.17 10.19 10.39.36-.31c2.13-1.86 4.28-3.64 6.39-5.3l.49-.38-.48-.4a17.71 17.71 0 0 0-4.99-2.95z" id="path28"/><path class="f" d="M638.89 364.66c.46.24.96.36 1.49.36.61 0 1.24-.16 1.87-.48 1.12-.56 2.1-1.57 2.76-2.83.66-1.26.93-2.64.75-3.89-.19-1.3-.83-2.31-1.82-2.82-.99-.52-2.18-.48-3.36.12-1.12.56-2.1 1.57-2.76 2.83-.66 1.26-.93 2.64-.75 3.88.19 1.3.83 2.31 1.82 2.82z" id="path29"/><path class="f" d="M670.16 364.38c1.64 3.04 2.22 4.9 4.68 12.75l1.14 3.64c3.07 9.76 4.25 13.23 4.88 15.1.47 1.39.6 1.76.97 3.19 3.72 14.24 3.89 26.26 4.01 35.03.07 5.34.18 12.65-1.09 22.27-1.7 12.91-4.9 22.67-6.2 26.26-4.52 12.53-10.14 21.24-13.86 27-2.54 3.94-8.01 11.88-16.06 20.81-8.47 9.4-16.22 15.93-20.08 18.98-11.77 9.31-22.3 14.84-26.28 16.79-6.04 2.95-11.25 5.5-16.99 7.26l-1.4.43 1.37.52a59.525 59.525 0 0 0 16.47 3.73c1.47.12 3.49.28 5.93.28 4.45 0 10.28-.54 16.62-2.87 5.06-1.86 8.91-4.56 16.59-9.95 4.6-3.23 8.95-6.27 13.97-11.03 6.09-5.77 9.66-10.79 15.08-18.38 4.73-6.64 8.82-12.37 13.22-20.94 5.3-10.32 7.97-18.79 9.92-24.98 2.54-8.07 4.57-16.45 5.88-24.24 1.13-6.76 1.87-13.8 2.2-20.93.46-9.92.15-20.86-.92-32.52-.41-4.51-.97-9.07-1.66-13.56-.12-.78-.22-1.58-.33-2.4-.41-3.19-.84-6.49-2.28-9.27-1.13-2.19-2.55-3.45-3.69-4.47l-.08-.07c-1.94-1.73-3.82-3.6-5.64-5.41-1.49-1.48-3.03-3.02-4.6-4.47-2.52-2.33-3.56-3.35-4.39-4.17-.73-.72-1.3-1.28-2.57-2.43a127.27 127.27 0 0 0-4.94-4.22l-2.02-1.63 1.26 2.27c.31.56.61 1.11.89 1.63z" id="path30"/><path class="f" d="M658.81 488.83c.44.23.92.34 1.42.34.58 0 1.18-.15 1.78-.45 1.07-.54 2-1.49 2.63-2.7 1.33-2.54.86-5.41-1.03-6.39-1.89-.99-4.51.27-5.84 2.81-.63 1.2-.88 2.52-.71 3.7.18 1.24.8 2.2 1.74 2.7z" id="path31"/><path class="d" d="M489.34 347.98c4.93 0 8.94-3.92 8.94-8.74s-4.01-8.74-8.94-8.74-8.94 3.92-8.94 8.74 4.01 8.74 8.94 8.74z" id="path32"/><path class="f" d="M535.09 557.45c2.6 3.08 6.17 7.3 12.24 10.38 5.49 2.78 10.24 3.26 14.83 3.71 1.74.17 3.53.26 5.35.26 3.59 0 7.28-.34 10.91-1 7.26-1.33 12.15-3.6 20.26-7.36 5.02-2.33 11.27-5.23 18.75-10.29 7.48-5.06 12.36-9.7 18.01-15.07 4.94-4.7 11.09-10.54 17.62-18.73 6-7.52 17.17-21.53 23.16-42.29 3.69-12.8 4.16-23.61 4.41-29.41.31-7.23.07-14.53-.73-21.68-.91-8.09-2.29-13.92-4.04-21.3-1.15-4.84-1.72-6.61-2.59-9.3-.86-2.65-2.03-6.28-4.37-14.89l-.06-.21c-.76-2.78-1.54-5.66-3.27-9.39-1.02-2.2-3.14-6.78-7.04-11.11-2.9-3.22-9.69-10.76-19.05-10.79h-.04c-5.11 0-8.79 2.24-14.87 5.93-4.52 2.75-8.75 6.25-12.92 10.71-5.25 5.6-8.04 10.2-11.58 16.02-.53.88-1.09 1.79-1.67 2.74-3.73 6.07-5.39 8.35-7.3 10.98-1.97 2.71-4.2 5.77-9.17 13.55-3.26 5.11-4.6 7.39-7.27 11.93-2.3 3.93-5.78 9.86-12.52 21.04l-.3.5.82.58c2.65-3.18 6.35-4.43 8.99-3.06 2.3 1.2 3.45 4.22 2.93 7.69l-.46 3.1 1.41-2.8c.38-.76.76-1.51 1.14-2.24 2.24-4.22 4.99-8.33 7.38-11.8 4.47-6.53 7.9-12.06 10.77-17.4 2.33-4.24 4.68-8.25 6.99-11.94l.64-1.02c3.57-5.69 6.95-11.06 11.34-16.09 3.59-4.03 6.94-7.06 10.53-9.53 3.28-2.27 6.89-3.61 10.44-3.87 8.81-.86 17.64 3.41 22.49 10.87 1.85 2.72 3.34 5.84 4.68 9.82.72 1.99 1.2 4.27 1.5 7.2.49 4.71.52 9.52.48 14.02-.04 15.29-1.88 30.39-5.49 44.85-6.67 26.12-21.48 50.19-41.71 67.8-6.81 6.12-13.41 10.8-20.15 14.31-6.84 3.47-14.28 5.88-22.11 7.15-6.38.96-12.49 1.51-17.18-2.18-2.65-1.99-4.15-4.96-5.59-8.1-3.18-6.75-4.15-14.37-2.95-23.3.87-7.1 2.45-14.03 4.69-20.58.93-2.72 2.57-6.21 4.01-9.3.58-1.25 1.14-2.44 1.62-3.5 1.92-4.06 3.9-8.38 5.81-12.56 2.31-5.04 4.69-10.25 7.09-15.26l1.38-2.89-2.2 2.33c-2.66 2.81-5.98 3.78-8.48 2.48-3.04-1.59-3.94-6.17-2.1-10.65l-.9-.45c-1.03 1.72-2.06 3.45-3.09 5.17-2.48 4.14-5.03 8.42-7.58 12.62l-.99 1.63c-5.01 8.26-8.04 13.25-11.49 20.76-1.34 2.92-3.39 7.65-5.51 13.59-2 5.59-3.1 8.67-4.05 13.25-1.03 4.96-1.54 10.44-1.48 15.86.08 6.69.13 11.1 2.23 16.65 2.13 5.61 5.18 9.23 7.41 11.87zm9.07-13.7c1.03-.52 2.05-.78 3.02-.78.8 0 1.56.18 2.25.54 3.18 1.66 3.85 6.7 1.48 11.23s-6.88 6.86-10.07 5.19c-1.51-.79-2.51-2.38-2.81-4.46-.31-2.15.16-4.55 1.32-6.77 1.16-2.22 2.87-3.98 4.8-4.95zm111.61-62.37c1.1-2.1 2.71-3.76 4.54-4.68.97-.49 1.94-.73 2.85-.73.76 0 1.47.17 2.12.51 1.43.75 2.37 2.24 2.65 4.21.29 2.03-.16 4.3-1.25 6.4-2.24 4.28-6.5 6.48-9.51 4.91-3.01-1.57-3.63-6.33-1.4-10.61zm-20.13-124.56c1.16-2.22 2.87-3.98 4.8-4.95 1.03-.52 2.05-.78 3.02-.78.8 0 1.56.18 2.25.54 1.51.79 2.51 2.38 2.81 4.46.31 2.15-.16 4.55-1.33 6.77-1.16 2.22-2.87 3.98-4.8 4.95-1.88.95-3.75 1.03-5.27.24-3.18-1.66-3.85-6.7-1.48-11.23z" id="path33"/><path class="h" d="M563.2 761.88c-3.41-.92-7.38-1.72-10.91-.68-1.73.51-3.07 1.55-4.1 3.2l-.05.09-.02.1c-.78 5-3.38 9.48-5.67 13.42-4.51 7.77-9.18 15.8-14.57 23.24-.94 1.3-1.8 2.42-2.62 3.42l-.11.13v.17c-.02.39-.19.76-.47 1.03-2.76 2.63-2.42 7.3-.69 10.37 1.98 3.52 5.56 6.01 9.14 8.18 8.83 5.35 17.59 9 26.06 10.87l.11.02.1-.02c4.25-.71 8.36-2.99 11.27-6.25 10.59-11.87 16.15-27.78 15.26-43.66l-.03-.48c-.13-2.19-.28-4.67.81-6.9.57-1.18 1.6-2.22 2.83-2.83l.74-.37-.67-.48c-7.84-5.66-16.97-10-26.4-12.54zm16.96 15.04c-.33.54-.9.88-1.63.97-.77.1-1.59-.1-2.33-.55-.74-.45-1.29-1.1-1.55-1.82-.25-.69-.21-1.36.12-1.89.7-1.14 2.47-1.33 3.96-.43 1.49.91 2.13 2.57 1.43 3.72zm-8.52-4.56c-.7 1.14-2.47 1.33-3.96.43-.74-.45-1.29-1.1-1.55-1.82-.25-.69-.21-1.36.12-1.89.4-.66 1.16-1 2.01-1 .63 0 1.31.19 1.95.57 1.49.91 2.13 2.57 1.43 3.72z" id="path34"/><path class="c" d="M522.84 902.16c-.66-4.94-3-9.57-4.97-13.05-.77-1.36-1.59-2.73-2.38-4.05-.47-.78-.94-1.58-1.41-2.38l-.09-.15-.16-.06c-16.96-6.91-32.15-17.2-43.91-29.77l-1.87-2 13.17 32.15a7.11 7.11 0 0 1-2.43 8.48l-7.17 5.15 5.3 13.41c.11.27.32.49.6.6 5.83 2.37 16.53 10.5 24.48 16.91.18.14.11.3.05.38-.06.08-.18.19-.37.08-1-.6-2.01-1.22-3.04-1.84-5-3.04-10.17-6.18-14.86-8.72l-.34-.19-8.3 8.91.4.34c1.92 1.66 3.64 3.44 5.11 5.28l.18.23.29-.05c13.83-2.29 26.69-.51 38.23 5.31l.57.29.15-.62c.52-2.19 1.97-6.05 5.87-7.33.82-.27 1.65-.39 2.46-.51 1.6-.24 2.6-.42 3.04-1.2.23-.39.26-.91.1-1.46-.36-1.2-1.4-2.12-2.52-3.05a66.87 66.87 0 0 0-6.93-4.99 3.78 3.78 0 0 1-1.22-5.21c1.78-2.94 2.49-6.9 1.96-10.88z" id="path35"/><path class="f" d="M452.15 984.21c-.21-7.09 1.49-14.69 5.35-23.91l.16-.39-.35-.23c-3.09-2.03-4.46-6.06-3.25-9.57l.22-.64-.67-.03c-17.19-.81-29.15-3.05-36.56-6.84l-.25-.13-.24.14c-5.09 3.02-9.11 9.23-11.04 17.03-2.03 8.18-1.46 16.97 1.5 23.5 2.53 5.57 8.18 9.17 14.38 9.17h33.29l-.45-.76c-1.3-2.21-2.03-4.75-2.11-7.34z" id="path36"/><path class="f" d="M648.35 976.42h-.4c-85.73 1.49-155.52-4.15-186.7-15.07l-.45-.16-.18.44c-3.66 8.74-5.28 15.89-5.08 22.48.19 6.45 5.38 11.5 11.81 11.5h177.29c3.1 0 5.63-2.51 5.65-5.61.02-3.63-.6-8.07-1.83-13.19l-.09-.39z" id="path37"/><path class="h" d="M640.11 815.96c3.78-1.95 7.39-4.6 10.72-7.87l.21-.21-.08-.28c-1.12-4.12-4.4-7.9-9.25-10.63-3.37-1.9-7-3.14-10.85-4.45-1.57-.54-3.36-1.14-5.05-1.79-.97-.37-1.95-.77-2.89-1.15-2.58-1.04-5.01-2.03-7.58-2.64-2.72-.65-6.67-1.07-10.07.61a8.635 8.635 0 0 0-3.07 2.57l-.06.09-.02.11c-.28 1.28-.66 2.52-.97 3.46a145.936 145.936 0 0 1-16.62 34.92l-.05.07-.02.09c-.94 4.03-1.16 9.59.57 12.29 1.2 1.87 3.33 3.02 5.59 4.13 11.13 5.46 23.24 9.71 36.01 12.64 1.54.35 3.05.66 4.47.66.86 0 1.69-.11 2.47-.4 3.52-1.28 5.14-5.82 6.04-9.12l.1-.38c1-3.63 2.13-7.75 5.01-10.45l.35-.33-.31-.37c-1.25-1.48-2.55-3.08-4.22-5.18-1.64-2.05-3.67-4.61-4.31-7.75-.7-3.44.96-7.17 3.86-8.66zm1.42-9.44c-.62 1.18-2.39 1.48-3.93.67-1.54-.81-2.28-2.44-1.66-3.62.62-1.18 2.39-1.48 3.93-.67.76.4 1.35 1.02 1.66 1.72.29.67.29 1.34 0 1.9zm-8.79-4.03c-.29.55-.85.93-1.56 1.07-.76.14-1.6 0-2.36-.4-.76-.4-1.35-1.02-1.66-1.72-.29-.67-.29-1.34 0-1.9.29-.56.85-.93 1.56-1.07.19-.04.39-.06.59-.06.59 0 1.2.16 1.77.46 1.54.81 2.28 2.44 1.66 3.62z" id="path38"/><path class="h" d="M507.47 798.4c2 1.37 5.04 1.36 7.56-.02 2.22-1.22 4.12-3.39 5.67-6.45.96-1.9 1.68-3.89 2.45-6.02.33-.91.67-1.86 1.03-2.78 1.53-3.94 3.46-7.74 5.34-11.42 1.18-2.31 2.39-4.7 3.49-7.1 3.22-7.03 4.69-12.77 4.6-18.06v-.22l-.17-.15c-.68-.59-1.38-1.14-2.09-1.64-5.8-4.09-12.7-6.12-21.27-7.91-3.08-.64-6.08-1.16-8.82-.49-1.19.29-2.4 1.4-3.33 3.04l-.05.08-.03.21c-.02.11-.03.21-.05.32-.21 1.18-.53 2.13-1.05 3.16l-.05.14c-.06.33-.22.62-.47.84l-.09.11c-.51.86-1.18 1.86-1.95 3.01-.59.88-1.28 1.92-2.1 3.17-.03.05-3.4 5.23-6.92 11.29-2.36 4.06-3.47 6.39-4.37 8.27-1.04 2.18-1.8 3.76-3.77 6.5l-.35.48.02.19c.04.34-.03.66-.19.94-3 5.07-2.5 12.38 1.25 18.2 3.11 4.82 8.33 8.92 15.53 12.18 4.3 1.95 7.9 2.9 11.09 2.9 1.11 0 2.17-.12 3.19-.34 5.94-1.33 10.33-6.48 13.85-11.34 5.3-7.32 9.93-15.28 14.4-22.99 1.27-2.18 2.7-4.65 3.77-7.2l.08-.19-.08-.19c-.12-.3-.14-.62-.06-.93.42-1.66.97-3.13 1.63-4.37l.05-.08.03-.24c.01-.11.03-.22.04-.34.34-4.12-1.06-8.59-3.95-12.57l-.76-1.04-.15 1.28c-.53 4.56-2.06 9.55-4.66 15.23-1.12 2.43-2.34 4.85-3.55 7.21-1.84 3.61-3.74 7.34-5.21 11.14-.36.92-.71 1.89-1.02 2.75-.76 2.1-1.54 4.27-2.58 6.33-1.82 3.61-4.15 6.21-6.91 7.73-1.7.93-3.58 1.43-5.45 1.43s-3.78-.54-5.27-1.56c-.33-.23-.56-.57-.63-.97a1.51 1.51 0 0 1 2.34-1.52zm19.22-51.29c.33-.54.9-.88 1.63-.97.76-.1 1.59.1 2.33.54 1.49.91 2.13 2.57 1.43 3.72-.7 1.14-2.47 1.33-3.96.43-.74-.45-1.29-1.1-1.55-1.82-.25-.69-.21-1.36.12-1.89z" id="path39"/><path class="c" d="M569.73 931.29c23.85.85 46.68.32 67.85-1.56 8.01-.71 15.75-4.09 21.81-9.5l5.79-5.18-.44-.37c-4.04-3.43-8.24-7.17-11.36-11.81-3.1-4.62-4.86-10.6-4.81-16.42.03-3.69 1.28-7.34 3.53-10.27.4-.52.85-1.05 1.44-1.68l.5-.54-.68-.27c-3.44-1.36-6.84-2.92-10.1-4.63-1.95-1.02-3.97-2.17-5.32-3.93-.9-1.17-1.33-2.5-1.34-4.2v-.84l-.74.4c-.39.21-.8.4-1.22.55-1.07.39-2.21.58-3.49.58-1.8 0-3.61-.38-5.16-.74-13-2.98-25.34-7.31-36.67-12.87-2.56-1.26-5.19-2.69-6.81-5.22-1.13-1.77-1.75-4.38-1.77-7.55v-1.2l-.86.85c-.88.88-1.77 1.61-2.72 2.21-2.57 1.63-5.78 2.46-9.54 2.46-2.53 0-4.89-.37-6.44-.65-9.6-1.73-19.56-5.69-29.6-11.77-3.93-2.38-7.89-5.15-10.21-9.28a13.715 13.715 0 0 1-1.73-6.63v-.96l-.79.55c-2.14 1.48-4.3 2.46-6.59 2.97-1.22.27-2.52.41-3.84.41-4.8 0-9.34-1.8-12.34-3.16-4.93-2.23-9.05-4.89-12.27-7.9l-.68-.64-.16.92c-2.98 17.57 2.28 36.72 15.63 56.96-12.98-12.74-24.91-35.61-19.53-62.68l.04-.19-.1-.17c-2.49-4.03-3.7-8.68-3.42-13.09l.08-1.19-.91.77c-1.18 1-2.42 1.81-3.8 2.46-2.5 1.18-5.17 1.75-8.15 1.75-2.71 0-5.28-.46-7.77-.9-2.75-.49-5.37-1.26-7.99-2.35l-.79-.33.1.85c3.87 33.32 19.39 60.85 44.9 79.6 22.59 16.61 52.04 25.86 85.51 26.92-14.41 1.53-29.77.36-44.84-3.44l-.34.94c14.19 6.8 33.24 14.35 58.24 23.08.04.01.17.06.12.24-.04.12-.11.16-.23.13-25.12-6.29-47.26-13.16-65.79-20.42l-1.14-.45.49 1.12c1.37 3.11 2.21 5.96 2.58 8.72.63 4.72-.22 9.28-2.37 12.85a.79.79 0 0 0 .25 1.09 71.36 71.36 0 0 1 7.24 5.21c1.44 1.18 2.89 2.5 3.5 4.51.41 1.35.28 2.71-.37 3.83-.1.17-.21.34-.36.53l-.33.43.45.3c7.41 4.95 14.02 10.35 20.2 16.49.44.44.1.87.03.95-.2.23-.57.39-.96.09-8.38-6.48-15.98-11.76-23.23-16.15l-.16-.1-.18.03c-.23.04-.46.07-.68.11-.71.11-1.39.21-1.95.39-3.13 1.03-3.92 5.09-4.09 6.31l-.05.33.29.17c5.49 3.24 10.77 7.49 15.77 12.66-24.63-17.46-44.93-21.76-63.6-13.55-4.05 1.78-8.31 4.77-13.39 9.4l-.08.07-.04.1c-.36.82-.82 1.64-1.04 1.86h-.27l-.12.35c-.45 1.39-.32 2.95.37 4.26a5.51 5.51 0 0 0 3.26 2.72c31.91 9.95 91.78 15.13 183.04 15.83h.04c2.03 0 3.79-1.15 4.61-3.01.83-1.87.48-3.97-.91-5.47l-9.11-9.86-.26.03c-15.68 2.09-35.69 2.26-59.52.49 26.15-.03 56.99-1.29 77.3-8.66.72-.26 1.24-.86 1.39-1.61.15-.74-.09-1.5-.65-2.01l-12.42-11.56-.24.03c-25.34 3.36-50.69 3.66-77.51.92-.39-.04-.4-.36-.39-.46 0-.1.07-.39.44-.4z" id="path40"/><path class="h" d="M642.54 849.87c-.52 1.9-1.4 4.7-2.97 7.04l-.09.13v.16c.11 3.74 2.4 7.63 5.97 10.15 2.7 1.9 5.99 3.15 10.66 4.06l.28.05.19-.21c1.1-1.24 1.87-2.33 2.42-3.43 1.27-2.54 1.48-5.34 1.52-7.5v-.19l-.12-.14c-.67-.8-1.27-1.62-1.78-2.43-1.74-2.8-2.74-5.77-2.82-8.36v-.22l-.17-.14c-2.67-2.31-5.36-5-8.23-8.23l-.35-.4-.38.37c-2.18 2.14-3.13 5.59-4.04 8.92l-.1.38z" id="path41"/><path class="i" d="m594.48 778.25-.2-.17-.26.07c-.45.13-.92.05-1.28-.22-.34-.24-.76-.3-1.27-.17-.84.21-1.66.88-2.04 1.67-.74 1.52-.63 3.41-.51 5.41l.03.5c.94 16.67-4.9 33.38-16.02 45.84a22.521 22.521 0 0 1-5.4 4.4l-1.61.95h1.87c3.14-.03 5.67-.68 7.74-1.99 2.44-1.55 4.22-4.06 5.84-6.51a143.24 143.24 0 0 0 16.3-33.32l.03-.08v-.09c-.05-1.83.5-3.71 1.56-5.42l.05-.08.02-.1c.32-1.79.29-3.29-.1-4.6-.72-2.41-2.7-4.35-4.74-6.08z" id="path42"/><path class="c" d="M747.18 779.7c-.31-3.29.6-6.56 2.57-9.21.43-.58.85-1.18 1.25-1.79 1.68-2.57 2.52-4.59 4.27-8.92 2.07-5.13 3.11-7.7 3.95-11.46.35-1.55.71-3.79 1.43-8.25l.15-.96c.23-1.39.53-3.3.96-5.74.64-3.68.88-4.99 1.17-5.76.75-1.99 2.06-3.82 3.89-5.43l.5-.44-.57-.36c-14.95-9.53-34.03-14.2-53.71-13.15-13.31.71-26.87.56-39.99.42-8.25-.09-16.78-.18-25.18-.06-17.84.26-26.48.16-33.43.08-7.68-.09-13.23-.15-26.64.28-5.55.18-11.19.2-16.65.23-4.38.02-8.91.04-13.37.14h-.25c-8.26.19-30.2.68-42.34-5.8-.64-.34-1.41-.77-2.3-1.34l-.38-.25-.28.35c-3.56 4.41-7.16 9.74-10.72 15.84-.41.7-1.08.69-1.54.47-.45-.22-.87-.73-.59-1.48 2.33-6.01 5.41-12.04 9.15-17.94l.21-.33-.28-.28c-.68-.71-1.32-1.45-1.9-2.22-2.67-3.54-3.63-6.89-3.92-8.16l-.15-.67-.59.35c-9.67 5.65-18.3 13.43-26.38 23.8l-.31.4.41.31c.56.42 1.03.84 1.46 1.21 1.01.88 1.87 1.65 3.77 2.58 2.25 1.11 3.59 1.3 5.02 1.49 1.57.22 3.2.45 5.68 1.84 2.33 1.32 5.6 3.76 7.9 7.91 1.15 2.07 1.93 4.2 2.32 6.33l.14.74.63-.41c.64-.41 1.32-.71 2-.88 3.35-.82 6.72-.25 10.16.47 7.74 1.61 15.8 3.75 22.39 8.4.94.66 1.84 1.38 2.69 2.14l.08.06c.18.11.33.25.45.42l.06.07c4.31 4.07 7.08 9.15 7.79 14.32l.11.77.66-.41c.77-.48 1.61-.86 2.5-1.12 4.26-1.25 8.73-.36 12.55.67 11.93 3.22 23.12 9.06 32.34 16.89 2.44 2.07 4.84 4.43 5.79 7.62.14.45.24.92.31 1.43l.11.74.64-.38c.25-.15.5-.29.75-.41 4.2-2.09 8.91-1.61 12.11-.84 2.79.67 5.44 1.74 8.01 2.78.93.38 1.89.77 2.83 1.12 1.63.62 3.32 1.2 4.95 1.75 3.81 1.3 7.74 2.64 11.36 4.68 4.64 2.62 8.16 6.27 9.91 10.28l.32.73.52-.61c2.26-2.63 4.41-5.59 6.37-8.8 4.68-7.64 7.99-15.87 11.53-25.06l.08-.22-.11-.21c-.1-.19-.19-.39-.28-.58-.13-.28-.24-.55-.39-.78-.59-.9-1.36-1.75-2.3-2.5-1.51-1.22-3.26-2.11-4.95-2.97l-.65-.33c-8.19-4.19-15.78-9.49-22.53-15.74-1.39-1.29-2.84-2.71-3.99-4.31-.2-.28-.39-.57-.41-.86-.01-.19.1-.38.2-.4.13-.03.36.13.48.21 3.43 2.23 6.77 4.71 10 7.11 2.53 1.88 5.16 3.83 7.81 5.65 7.1 4.87 13.16 7.84 19.08 9.36l.44.11 2.05-5.39v-.12c-.15-1.3-.43-2.56-.86-3.75-.58-1.63-1.39-3.13-2.42-4.46-.85-1.1-1.84-2.08-2.79-3.03-.39-.39-.79-.78-1.17-1.18-1.1-1.14-2.45-2.69-3.12-4.51-.09-.24-.17-.48-.14-.69.02-.14.1-.26.17-.28.08-.02.25.03.61.39l6.85 6.88c1.61 1.62 3.09 3.03 4.89 3.9l.5.24 2.04-5.38c.13-.33.37-.6.7-.74.33-.15.69-.15 1.02-.03.68.26 1.02 1.03.76 1.71l-8.47 22.29c-1.81 4.71-3.69 9.58-5.81 14.38l-.43.97 1.08-.3c.08-.02.16-.04.23-.06 2.19-.53 4.54-.41 6.81-.28l.67.04c9.65.5 19.35-.2 28.82-2.09 5.51-1.1 12.57-2.9 18.31-7.12 5.24-3.85 9.5-9.87 12.34-17.41 2.21-5.87 3.4-12.05 4.34-17.41.4 5.37-.26 11.3-1.95 17.63-1.6 5.97-7.29 19.83-9.16 24.38-.3.72-.51 1.23-.6 1.47-.86 2.17-.84 4.39.06 6.08.63 1.18 1.62 2.04 2.59 2.88.77.67 1.51 1.31 2.06 2.09 1.49 2.12 1.37 5.38-.29 7.75-.86 1.23-2.07 2.24-3.58 2.98l-.29.14v.32c.16 4.89 3.2 9.45 6.04 13.34l.37.51c3.17 4.33 6.76 9.24 7.28 14.97.03.33.05.68.06 1.07v.54l.55-.05c3.2-.27 5.91-1.08 8.28-2.46 1.16-.68 1.79-2.01 1.55-3.32-3.15-17.49-5.48-34.38-7.1-51.63z" id="path43"/><path class="f" d="M729.42 876.93a9.985 9.985 0 0 0-6.98 2.94c-.49.5-.95 1.06-1.39 1.6-1.5 1.84-2.8 3.43-5.25 2.9-.62-.13-1.25-.42-1.87-.86-2.35-1.66-4.53-3.83-6.86-6.85-.76-.98-1.56-2.09-2.51-3.48l-1.1-1.61-.14-.21-9.81-.48c-5.55-.27-11.3-.55-16.79-1.82-4.64-1.07-8.64-2.78-11.91-5.07l-.47-.33-.26.51c-1.16 2.25-2.82 4.27-4.43 6.23-1.83 2.22-3.72 4.52-4.93 7.2-2.78 6.14-3.14 12.95-.99 18.68 2.44 6.51 7.76 11.41 12.12 14.94 1.31 1.06 2.67 2.11 3.99 3.13 3.67 2.83 7.46 5.76 10.56 9.26 1.52 1.71 3.51 2.95 5.6 4.18 2.25 1.32 4.46 2.07 6.57 2.21 2.53.17 4.96-.56 6.67-2.02 1.18-1 2.24-2.33 2.98-3.73l.17-.32-.25-.26c-2.54-2.67-5.31-5.93-6.52-9.88-.09-.3-.18-.62-.13-.89.03-.18.17-.35.29-.36.2-.02.47.28.59.41 1.37 1.45 2.68 3 3.95 4.51 1.19 1.4 2.41 2.85 3.69 4.22 3.24 3.48 6.21 5.73 9.35 7.09 2.13.92 4.33 1.38 6.44 1.38 1.86 0 3.64-.36 5.24-1.08 1.87-.85 3.34-2.16 4.15-3.69.77-1.46.97-3.12 1.07-4.7.28-4.33-.06-8.69-1.03-12.95l-.08-.35-.35-.04c-1.63-.19-3.29-.59-4.93-1.19-2.96-1.08-5.89-2.74-9.5-5.39-1.15-.84-2.33-1.78-3.15-2.89l1.76 1.15c3.57 2.34 7.62 4.99 12.15 5.93 5.11 1.05 10.08-.49 12.65-3.93 2.11-2.82 2.4-6.58 2.44-9.17.08-5.54-1.15-9.48-3.76-12.05-1.86-1.83-4.42-2.85-7.02-2.85z" id="path44"/><path class="i" d="M982.02 577.31c-1.18-44.85-11.73-87.95-29.71-121.37-20.28-37.71-48.68-60.51-82.11-65.96-1.19-.19-2.44.03-3.5.63l-17.25 9.71.55.47c3.2 2.71 6.3 5.54 9.21 8.42l.28.28 5.35-3.24a6.896 6.896 0 0 1 6.2-.47c18.32 7.64 34.73 20.05 48.77 36.89 13.17 15.8 23.93 35.08 31.98 57.28 11.69 32.27 16.95 68.79 15.2 105.61-1.8 37.8-10.94 73.5-26.45 103.23-17.78 34.11-42.12 58.82-72.34 73.45-21.64 10.48-46.51 15.79-73.93 15.79-13.27 0-27.35-1.25-41.83-3.73l-.67-.11.08.67c.48 4.02 1.01 8.05 1.56 11.98l.05.37.37.05c14.89 2.14 29.13 3.2 42.7 3.2 48.56 0 88.52-13.66 119.18-40.81 60.69-53.76 67.59-143.59 66.31-192.35z" id="path45"/><path class="c" d="M724.32 792.23a38.975 38.975 0 0 1-10.37 3c-1.79.26-3.6.4-5.4.42-.45 0-1.01-.06-1.61-.14-1.21-.14-2.46-.29-3.35.03l-.58.21.32.52c.69 1.14 2.4 2.01 3.77 2.72.39.2.75.39 1.05.56 2.55 1.48 4.86 2.54 7.07 3.25 1.82.58 4.18 1.11 6.75 1.11 1.8 0 3.7-.26 5.59-.94 1.27-.46 2.17-1 2.83-1.7.88-.94 1.27-2.2 1.01-3.3-.22-.93-.87-1.67-1.4-2.26l-2.72-3.07c-.2-.23-.45-.51-.81-.67-.78-.36-1.6 0-2.15.25z" id="path46"/><path class="i" d="M667.23 862.82c3.03 2.04 6.52 3.09 9.54 3.86 6.99 1.77 14.73 2.71 23.01 2.8h.35c1.53 0 3.21-.14 4.45-1.15 1.08-.89 1.66-2.27 1.79-4.24l.04-.6-.59.06c-5.37.57-10.74.55-15.97-.06-10.22-1.18-19.87-4.6-27.93-9.89l-.97-.6.2 1.15c.02.11.04.21.06.31.64 3.17 2.84 6.21 6.02 8.35z" id="path47"/><path class="c" d="m726.96 779.09-.63.33c-2.57 1.36-5.26 2.6-7.99 3.67a78.628 78.628 0 0 1-15 4.21c-2.54.45-5.12.77-7.68.97-1.16.09-2.42.15-3.87.19h-.32c-.47-.02-1.26-.04-1.4 1.03-.09.69.49 1.33.8 1.57.57.44 1.26.58 1.97.7 3.23.54 6.62.81 10.38.81 2.32 0 4.79-.1 7.44-.31 3.53-.27 7.58-.73 11.01-2.74 3.13-1.84 6.01-5.56 5.4-9.73l-.1-.71z" id="path48"/><path class="c" d="m734.42 822.15-.41.29.41-.3-.37-.51c-2.88-3.94-5.98-8.58-6.48-13.82l-.05-.54-.66.11c-2.45.39-5.1.19-8.61-.62-7.42-1.72-14.44-5.12-21.24-8.4-1.64-.79-3.33-1.61-5.01-2.4-7.13-3.34-15.6-6.8-24.43-7.19h-.33l-.14.28a95.507 95.507 0 0 1-4.5 8.27c-5.94 9.71-13.09 16.77-21.27 20.99-1.82.94-2.93 3.53-2.47 5.78.47 2.32 1.99 4.37 3.78 6.62 5.14 6.45 10.72 13.17 17.51 18.38 10.45 8.01 24.05 12.19 38.02 12.19 8.2 0 16.52-1.44 24.42-4.38 5.89-2.2 10.08-4.67 13.19-7.79 3.81-3.82 5.83-8.8 5.42-13.32-.46-5-3.67-9.39-6.78-13.64z" id="path49"/><path class="c" d="M424.36 918.27c-5.3 1.96-11.44 6.22-10.55 15.44.2 2.02 1.28 3.79 2.99 4.86 7.13 4.46 19.76 6.88 39.76 7.61h.23l.16-.15c2.26-2.35 4.42-4.42 6.61-6.34 3.65-3.2 8.05-5.57 12.71-6.85l.8-.22-.56-.61c-5.47-5.94-13.67-10.71-23.1-13.41-10.54-3.03-21.4-3.15-29.04-.32z" id="path50"/><path class="i" d="m404.27 584.08.19.3.34-.08c2.84-.66 5.77-1.09 8.71-1.28h.22l.14-.18c6.91-8.26 8.49-18.26 10.01-27.95 1.34-8.49 2.72-17.28 7.81-24.42l.16-.22-.1-.25c-1.8-4.72-2.35-9.44-1.67-14.42l.11-.79-.76.24c-5.94 1.89-11.57.18-17.22-5.23l-1.51-1.45.69 1.98c4.27 12.23 5.86 23.72 4.74 34.15-1.34 12.42-6.55 23.77-15.49 33.73l-.28.31.25.33c1.27 1.67 2.5 3.42 3.66 5.21z" id="path51"/><path class="f" d="M356.59 588.4c6.92 7.6 15.07 11.31 24.84 11.31.63 0 1.26-.02 1.9-.05l.42-.02.05-.42c.22-1.72.91-3.31 1.99-4.6 3.43-4.1 8.86-7.36 15.68-9.44l.65-.2-.38-.56c-7.61-11.41-17.13-19.61-28.3-24.37-1.55-.66-3.29-.62-4.76.13-10.11 5.1-14.29 13.85-12.77 26.75.06.55.3 1.06.67 1.48z" id="path52"/><path class="f" d="M358.5 626.87c5.11 2.39 11.02 3.6 17.43 3.6 3.12 0 6.36-.29 9.69-.87l.18-.03.12-.14c2.44-2.9 5.03-5.8 7.69-8.61l.51-.54-.7-.27c-1.46-.57-2.78-1.32-3.93-2.23-3.97-3.15-5.94-8.3-5.85-15.29v-.53l-.52.02c-11.06.42-20.55-3.62-28.22-12.05l-.32-.36-.36.21c-9.03 5.29-12.74 14.01-9.67 22.74 2.12 6.04 7.08 11.14 13.96 14.36z" id="path53"/><path class="i" d="m440.22 782.37-.07-1.26-.21-.14c-1.2-.79-2.26-1.55-3.12-2.17-3.8-2.74-6.81-4.9-8.57-9.06-.61-1.45-1.02-3-1.21-4.61l-.03-.25-.22-.13c-28.33-16.71-47.56-34.1-57.16-51.71-10.23-18.78-9.94-38.47.86-58.52l.09-.17-.05-.19c-.4-1.59-.15-3.23.71-4.61 3.46-5.6 7.46-11.23 11.89-16.76l.77-.96-1.23.15c-4.58.55-9.03.55-13.24 0l-.3-.04-.18.24c-20.43 27.95-25.76 52.48-16.27 75.02 12.95 30.77 41.33 55.25 86.78 74.85l.75.32z" id="path54"/><path class="f" d="M359.28 642.56c2.06-3.43 4.38-6.93 6.89-10.43l.45-.62-.75-.16c-2.91-.63-5.66-1.56-8.19-2.74-2.05-.96-3.99-2.11-5.76-3.42l-.13-.1-24.9-.31a7.92 7.92 0 0 0-6.4 3.09c-5.14 6.71-2.18 15.12 3.41 19.96 3.34 2.89 8.04 4.95 13.59 4.95 6.4 0 13.91-2.74 21.7-10.11z" id="path55"/><path class="i" d="M416.51 655.79c-3.17 3.62-6.84 6.8-10.91 9.44l-.4.26 2.82 4.94.45-.31c12.53-8.67 24.44-19.52 26.71-40.12l.02-.21-3.96-4.92-.24 1c-2.92 12.19-7.8 22.26-14.5 29.91z" id="path56"/><path class="c" d="M478.9 656.27h-.43l-.08.41c-2.31 12.28-6.06 23.04-11.13 31.98-.02.03-.05.09-.14.04-.09-.04-.07-.1-.06-.14 4.1-11.45 8.14-25.03 7.01-39-.05-.58-.35-1.09-.85-1.4-.49-.31-1.09-.37-1.63-.17l-3.94 1.48-.03.32c-.27 3.33-.75 6.5-1.41 9.45-1.53 6.74-7.33 14.01-11.93 18.92-.03.03-.07.07-.14.01-.08-.06-.04-.12-.02-.15 9.88-15.19 12.56-34.45 7.96-57.24-.11-.56-.49-.84-.71-.96-.22-.12-.66-.28-1.19-.07l-21.7 8.65.11.43c.05.2.07.4.05.6-2.18 22.83-15.53 34.84-29.62 44.41l-.22.15-.27 17.9c-.04 2.85 1.46 5.31 4.01 6.57 2.56 1.26 5.42.97 7.66-.8l7.64-6.01c.61-.48 1.46-.48 2.08-.01 8.16 6.24 15.12 13.63 21.91 23.24l.46.65.39-.69c.4-.69.88-1.35 1.46-1.99 1.06-1.16 4.01-3.93 8.62-4.51 3.8-.48 6.74.83 9.09 1.89l.36.16.24-.31c8.91-11.55 18.54-20.09 29.42-26.1l.26-.14v-.3c0-1.48.17-2.94.49-4.35.76-3.43 2.17-5.44 4.49-8.77.51-.73 1.06-1.53 1.66-2.41 1.85-2.73 3.52-5.63 5.13-8.43.83-1.45 1.7-2.95 2.57-4.41l1.92-3.19-1.13.24c-14.06 2.99-26.97 4.35-38.39 4.06z" id="path57"/><path class="f" d="M401.97 635.03c-.19.1-.41.12-.61.05a.822.822 0 0 1-.46-.4c-2.53-5.39-3.27-11.05-3.46-13.24l-.03-.38-.57-.1c-.12-.02-.23-.04-.34-.06l-.27-.06-.19.2c-9.16 9.56-16.95 19.5-23.14 29.52-.72 1.16-.8 2.6-.23 3.86 2.89 6.31 6.07 11.37 9.72 15.47a4.35 4.35 0 0 0 4.3 1.33c23.96-5.95 38.18-22.49 43.49-50.56l.03-.15.08-.14c5.89-10.65 7.67-20.11 5.29-28.14-.14-.49-.38-.94-.71-1.35-2.92-3.68-9.53-5.95-17.66-6.05-10.16-.13-23.36 3.22-29.91 11.02a7.113 7.113 0 0 0-1.6 3.95c-.65 7.78 1.03 13.31 4.99 16.46 5.23 4.16 14.73 4.26 27.47.31a.43.43 0 0 1 .35.04c.1.06.18.15.21.27a.44.44 0 0 1-.26.51c-7.36 2.86-13.7 4.17-18.86 3.89l-.59-.03.06.59c.28 2.54 1.07 7.5 3.26 12.18.18.38.03.83-.34 1.02z" id="path58"/><path class="f" d="M778.72 729.2c-1.49.56-3.1-.97-4.4-2.19-.37-.35-.73-.69-1.06-.95-.95-.77-1.96-1.54-3.01-2.3l-.3-.22-.3.23c-1.91 1.45-3.22 3.1-3.89 4.91-.2.53-.5 2.24-1.03 5.22-.3 1.73-.54 3.18-.74 4.38l-.11.67.67-.09c.74-.1 1.55-.21 2.42-.33 5.31-.74 7.99-1.19 9.54-1.47 4.33-.77 6.07-1.25 7.77-1.85 2.48-.88 3.98-1.42 4.99-2.73 1.48-1.92 1.63-4.79.45-8.52-.84-2.65-2.75-6.33-10.09-11.25-4.98-3.34-10.75-6.09-16.25-7.75-16.81-5.08-29.65-5.87-29.78-5.88-34.29-1.99-55.14-1.11-55.33-1.1l-124.13 1.46c-17.87-.26-29.57-2.75-34.78-7.4a1.44 1.44 0 0 1-.48-1.1c0-.42.19-.81.51-1.09.45-.38 1.09-.45 1.62-.18 6.66 3.42 17.61 5.27 33.5 5.65l151.61.37c32.03.15 52.7 2.01 65.04 5.84l1.77.55-15.89-17.47-4.24-4.81-.25.02c-36.44 2.91-80.32-1.89-117.37-12.84-39.3-11.62-65.11-28.51-70.81-46.35l-.07-.22-13.99-6.03c-2.89-1.25-6.27-.02-7.69 2.8-9.81 19.45-20.12 36.97-30.63 52.11-4.77 7.38-4.47 13.57-3.37 17.47 1.44 5.1 5.14 9.41 10.17 11.83 14.76 7.08 63.72 6.5 115.56 5.88 12.51-.15 25.44-.3 37.73-.34 12.85.05 24.29.15 33.47.23 7.34.07 13.68.12 18.53.13 9.8.02 19.93 2.08 30.12 6.12 4.72 1.87 9.48 4.19 14.15 6.88.39.23.79.45 1.18.67 3.89 2.21 7.56 4.3 9.39 8.37.37.82.68 1.65.48 2.14-.09.23-.31.4-.67.54zm-259.86-47.02c0 1.64-1.09 2.98-2.43 2.98s-2.43-1.33-2.43-2.98 1.09-2.98 2.43-2.98 2.43 1.33 2.43 2.98z" id="path59"/><path class="h" d="m482.46 720.06-.43-.14c-.82-.27-1.64-.61-2.52-1.05-2.25-1.12-3.41-2.13-4.43-3.03-1.09-.96-2.03-1.79-4.31-2.81-2.39-1.07-4.66-2.09-7.61-1.71-3.71.47-6.12 2.83-6.76 3.55-1.45 1.59-1.81 3-2.35 5.13-.26 1.01-.55 2.15-1 3.5-.95 2.8-3.38 6.39-8.24 13.55-5.26 7.75-9.02 12.99-9.18 13.22l-.8 1.12c-2.88 4-3.85 5.34-4.44 7.87-.77 3.28-.54 6.5.65 9.32 1.36 3.23 3.53 4.89 7.55 7.78 3.51 2.53 8.82 6.35 16.96 7.8 2.37.42 4.78.85 7.23.85 2.27 0 4.57-.37 6.88-1.46 3.71-1.75 5.68-4.49 8.94-9.04 1.81-2.53 2.48-3.93 3.49-6.04.92-1.93 2.07-4.32 4.48-8.48 3.56-6.12 6.96-11.37 7-11.42.82-1.26 1.52-2.31 2.12-3.2.94-1.41 1.59-2.39 2.05-3.18l.05-.08v-.1c.18-1.2.58-2.46 1.15-3.65l.04-.08v-.09c.3-3-.45-6.21-2.17-9.3-1.96-3.53-4.75-5.62-6.75-6.74-1.55-.87-2.61-1.17-3.81-1.36l-.84-.13.29.8c.28.78.52 1.55.71 2.3 1 3.87.88 6.94.78 9.23-.21 4.93-1.35 8.54-1.9 10.28-1.09 3.43-2.37 6-3.04 7.23-1.28 2.34-2.23 3.48-3.07 4.47-.79.94-1.47 1.76-2.41 3.56-.59 1.12-.78 1.68-1.11 2.61-.36 1.04-.86 2.46-2.14 5.36-1.84 4.14-2.7 5.47-4.19 6.49-1.46 1-3.24 1.51-5.27 1.51-.66 0-1.35-.06-2.05-.17-.4-.06-.75-.28-.99-.6a1.52 1.52 0 0 1 .33-2.11c.32-.24.73-.33 1.12-.27 1.44.23 3.51.26 5.14-.85.73-.5 1.3-1.1 3.13-5.23 1.23-2.77 1.71-4.13 2.05-5.13.33-.95.59-1.7 1.28-3.02 1.09-2.08 1.95-3.1 2.77-4.09.82-.98 1.59-1.9 2.73-3.99.62-1.13 1.8-3.5 2.81-6.69.51-1.61 1.57-4.97 1.76-9.54.09-2.17.2-4.87-.69-8.3-.27-1.05-.62-2.09-1.03-3.1-.12-.28-.14-.59-.08-.89l.09-.44zm-2.01 6.53c-.33.54-.9.88-1.63.97-.77.1-1.59-.1-2.33-.55-.74-.45-1.29-1.1-1.55-1.82-.25-.69-.21-1.36.12-1.89.7-1.14 2.47-1.33 3.96-.43.74.45 1.29 1.1 1.55 1.82.25.69.21 1.36-.12 1.89zm-15.28-9.15c.33-.54.9-.88 1.63-.97.76-.1 1.59.09 2.33.54.74.45 1.29 1.1 1.55 1.82.25.69.21 1.36-.12 1.89-.33.54-.9.88-1.63.97-.77.1-1.59-.1-2.33-.55-.74-.45-1.29-1.1-1.55-1.82-.25-.69-.21-1.36.12-1.89z" id="path60"/><ellipse cx="772.26" cy="405.73" rx="28.67" ry="63.21" transform="rotate(-70.63 772.264 405.725)" id="ellipse60" style="fill:url(#b)"/></g><g id="g80"><path d="M656.93 492.43c3.26 1.7 7.82-.59 10.19-5.12 2.37-4.53 1.65-9.59-1.61-11.29-3.26-1.7-7.82.59-10.19 5.12-2.37 4.53-1.65 9.59 1.61 11.29zm1.3-9.77c1.2-2.29 3.51-3.46 5.16-2.59 1.65.86 2.01 3.42.81 5.71-1.2 2.29-3.51 3.46-5.16 2.59-1.65-.86-2.01-3.42-.81-5.71z" id="path61"/><path d="M645.93 351.18c-3.44-1.8-8.25.62-10.75 5.4s-1.74 10.11 1.7 11.91c3.44 1.8 8.25-.62 10.75-5.4s1.74-10.11-1.7-11.91zm-1.38 10.3c-1.26 2.42-3.7 3.64-5.44 2.74-1.74-.91-2.12-3.61-.86-6.03 1.26-2.42 3.7-3.64 5.44-2.74 1.74.91 2.12 3.61.86 6.03z" id="path62"/><path d="M549.66 543.07c-3.44-1.8-8.25.62-10.75 5.4s-1.74 10.11 1.7 11.91c3.44 1.8 8.25-.62 10.75-5.4s1.74-10.11-1.7-11.91zm-1.38 10.3c-1.26 2.42-3.7 3.64-5.44 2.74-1.74-.91-2.12-3.61-.86-6.03 1.26-2.42 3.7-3.64 5.44-2.74 1.74.91 2.12 3.61.86 6.03z" id="path63"/><path d="M755.07 524.66c3.26 1.7 7.82-.59 10.19-5.12 2.37-4.53 1.65-9.59-1.61-11.29-3.26-1.7-7.82.59-10.19 5.12-2.37 4.53-1.65 9.59 1.61 11.29zm1.3-9.77c1.2-2.29 3.51-3.46 5.16-2.59 1.65.86 2.01 3.42.81 5.71-1.2 2.29-3.51 3.46-5.16 2.59-1.65-.87-2.01-3.42-.81-5.71z" id="path64"/><path d="M758.41 655.61c3.31 1.73 7.94-.6 10.35-5.2 2.41-4.6 1.67-9.74-1.63-11.47-3.31-1.73-7.94.6-10.35 5.2-2.41 4.6-1.67 9.74 1.63 11.47zm1.32-9.92c1.22-2.33 3.56-3.51 5.24-2.63 1.67.88 2.05 3.47.83 5.8-1.22 2.33-3.56 3.51-5.24 2.63-1.67-.88-2.05-3.47-.83-5.8z" id="path65"/><ellipse cx="516.43" cy="682.19" rx="2.93" ry="3.48" id="ellipse65"/><path d="M631.33 798.43c-1.79-.94-3.85-.55-4.61.88-.76 1.43.08 3.36 1.87 4.3s3.85.55 4.61-.88c.76-1.43-.08-3.36-1.87-4.3z" id="path66"/><path d="M641.98 806.76c.76-1.43-.08-3.36-1.87-4.3s-3.85-.55-4.61.88c-.76 1.43.08 3.36 1.87 4.3s3.85.55 4.61-.88z" id="path67"/><path d="M567.41 773.23c1.73 1.05 3.81.79 4.65-.6.84-1.38.12-3.35-1.6-4.41-1.72-1.06-3.81-.79-4.65.6-.84 1.38-.12 3.35 1.6 4.41z" id="path68"/><path d="M527.86 751.25c1.73 1.05 3.81.79 4.65-.6.84-1.38.12-3.35-1.6-4.41-1.73-1.05-3.81-.79-4.65.6-.84 1.38-.12 3.35 1.6 4.41z" id="path69"/><path d="M476.22 727.45c1.73 1.05 3.81.79 4.65-.6.84-1.38.12-3.35-1.6-4.41-1.73-1.05-3.81-.79-4.65.6-.84 1.38-.12 3.35 1.6 4.41z" id="path70"/><path d="M466.34 721.59c1.73 1.05 3.81.79 4.65-.6.84-1.38.12-3.35-1.6-4.41-1.72-1.06-3.81-.79-4.65.6-.84 1.38-.12 3.35 1.6 4.41z" id="path71"/><path d="M575.93 777.79c1.73 1.05 3.81.79 4.65-.6.84-1.38.12-3.35-1.6-4.41-1.73-1.05-3.81-.79-4.65.6-.84 1.38-.12 3.35 1.6 4.41z" id="path72"/><path d="M985.91 577.21c-1.2-45.44-11.91-89.16-30.17-123.11-20.87-38.81-50.24-62.31-84.92-67.96-2.06-.34-4.2.05-6.03 1.08l-18.11 10.19c-1.49-1.19-3.06-2.4-4.69-3.61-13.23-9.78-24.64-15.04-27.83-16.48-10.82-4.86-19.7-7.22-27.1-9.16-11.16-2.92-20.02-4.24-23.8-4.76-8.19-1.12-23.32-3.1-42.48-1.1-12.89 1.35-21.19 3.82-24.17 4.76-3.83 1.21-7.15 2.48-9.85 3.62-.8-.53-1.66-1.12-2.6-1.79-5.27-3.77-6.11-5.15-10.25-8.42-2.75-2.17-6.39-4.72-11.07-7.29a28.62 28.62 0 0 0-5.41-4.06c-6.29-3.64-12.36-4.02-15.01-4.03-7.85-.03-13.39 3.07-19.04 6.23-8.51 4.75-13.77 10.47-17.21 14.28-2.14 2.37-4.22 4.93-10.25 13.92-7.86 11.7-13.75 21.36-17.21 27.1-9.9 16.4-8.53 14.97-13.92 23.44-9.02 14.19-9.82 13.46-15.75 23.8-6.1 10.66-5.69 12.2-11.72 21.61-2.86 4.46-4.83 7.04-6.96 12.08-.7 1.66-1.17 3-4.39 13.55-2.09 6.86-3.14 10.29-3.3 10.99-1.77 7.96-1.38 14.43-1.1 18.68.4 6.02.82 12.29 4.03 19.77 1.49 3.47 4.15 9.51 10.25 15.01 6.15 5.54 12.47 7.56 16.48 8.79.62.19 2.05.62 4.16 1.04.79 4.7 2.07 10.62 4.27 17.27 2.01 6.09 4.22 12.79 8.8 20.15l-4.85 3.49-13.4-7.02c-6.04-3.17-13.48-.26-15.78 6.16-.63 1.9-1.49 4.39-2.6 7.26-1.12 2.89-3.25 8.11-6.59 14.65-1.59 3.11-2.68 4.99-5.8 10.19-15.12 3.49-28.81 5.13-40.88 4.88.59-3.74 1.07-7.65 1.42-11.76.08-.92-.85-1.6-1.7-1.24l-10.96 4.7c.09-7.41-.75-15.43-2.47-23.97-.27-1.32-.97-2.53-2.06-3.33a5.292 5.292 0 0 0-5.13-.67l-22.36 8.91-3.52-4.37c5.83-10.89 7.52-20.68 5.02-29.13-.23-.79-.61-1.52-1.14-2.17-3.42-4.3-10.51-6.84-19.47-6.97 6.03-8.32 7.54-17.87 9-27.14 1.4-8.86 2.71-17.22 7.83-23.99.31-.41.38-.96.19-1.44-2.17-5.29-2.63-10.64-1.39-16.35a1.458 1.458 0 0 0-2.06-1.63c-7.78 3.72-14.67.59-22.34-10.15a1.46 1.46 0 0 0-1.91-.42c-.65.37-.92 1.17-.62 1.86 12.79 29.56 10.57 53.5-6.8 73.09-6.98-8.46-15.22-14.75-24.61-18.76a8.44 8.44 0 0 0-7.12.2c-11.12 5.61-15.93 15.56-14.29 29.56.01.1.03.2.05.3-5.04 2.9-8.7 6.8-10.61 11.34-1.93 4.57-2.04 9.56-.33 14.43 1.2 3.44 3.23 6.58 5.93 9.31l-21.25-.27h-.13c-3.21 0-6.28 1.51-8.23 4.04-5.35 6.98-3.77 16.76 3.75 23.27 4.17 3.61 9.46 5.53 15.12 5.53.83 0 1.66-.04 2.51-.12 5.03-.5 10.13-2.51 15.05-5.89-3.57 6.87-6.13 13.52-7.72 20.04-3.31 13.53-2.35 26.67 2.86 39.05 13.38 31.8 42.77 57.01 89.81 77.01 1.9 22.09 9.25 40.79 20.09 56.09l17.59 42.94c.57 1.39.11 2.97-1.1 3.84l-7.15 5.14a3.938 3.938 0 0 0-1.36 4.64l5.29 13.39c.5 1.25 1.5 2.26 2.75 2.77 1.18.48 2.45 1.06 3.78 1.72l-7.14 7.67c-5.11-3.68-11.29-6.63-18.22-8.62-11.31-3.24-23.07-3.33-31.46-.23-9.31 3.44-13.96 10.35-13.08 19.46.23 2.39 1.3 4.63 2.96 6.31-5.18 3.81-9.16 10.3-11.15 18.32-2.23 9.01-1.58 18.74 1.74 26.04 3.16 6.96 10.2 11.45 17.93 11.45h36.27c2.66 2.07 6.01 3.3 9.66 3.3h177.29c5.23 0 9.51-4.25 9.54-9.47.02-3.74-.56-8.19-1.74-13.26 6.3-.99 9.31-8.72 4.89-13.73l-8.17-9.25c7.21-1.39 13.54-3.28 18.9-5.72 2.82-1.29 3.25-5.13.79-7.02l-14.73-11.35c.21-.13.43-.27.63-.42l14.4-10.25c2.48 2.05 4.98 4.07 7.5 6.06 3 2.37 6.07 4.72 9.55 6.3 3.48 1.58 7.47 2.33 11.17 1.38 3.11-.8 5.94-2.98 7.23-5.87 1.85 1.84 3.79 3.62 6.13 4.75 2.59 1.24 5.52 1.59 8.4 1.64 3.47.06 7.11-.37 9.94-2.38 3.63-2.58 5.16-7.28 5.41-11.73.08-1.44.05-2.89-.02-4.33-.12-2.39-.36-4.78-.43-7.17.19-.04.37-.07.55-.11 3.61-.82 6.96-3.08 8.67-6.36 1.39-2.68 1.62-5.82 1.43-8.83-.28-4.34-1.41-8.69-3.82-12.31-2.41-3.61-6.2-6.42-10.5-7.1-4.29-.68-9.02 1-11.48 4.58-.73 1.06-1.43 2.39-3.06 2.04-.5-.11-.95-.36-1.33-.71-2.4-2.24-4.31-5-5.59-8.02 1.08-.92 1.66-2.39 1.76-3.83.08-1.2-.11-2.39-.38-3.57 4.57-.77 9.07-1.96 13.42-3.58 6.33-2.36 10.88-5.07 14.32-8.53 3.06-3.08 5.14-6.84 5.98-10.65 4.02-.24 7.47-1.22 10.5-2.98 2.44-1.42 3.75-4.23 3.25-7-1.18-6.53-2.24-12.98-3.19-19.4 14.63 2.04 28.63 3.06 42.01 3.06 49.51 0 90.33-13.99 121.73-41.8 24.28-21.51 42.42-50.91 53.9-87.4 10-31.78 14.74-69.11 13.72-107.97zM674.64 366.7c2.69 2.42 2.2 2.2 6.96 6.59 3.49 3.22 6.71 6.73 10.25 9.89 1.11.99 2.54 2.23 3.66 4.4 1.76 3.41 1.98 7.77 2.55 11.51.69 4.49 1.24 9.01 1.66 13.53.98 10.7 1.41 21.73.91 32.45-.45 9.75-1.6 17.3-2.2 20.87-.58 3.45-2.21 12.59-5.86 24.17-2.07 6.57-4.71 14.82-9.89 24.9-4.38 8.53-8.49 14.29-13.18 20.87-5.61 7.88-9.08 12.69-15.01 18.31-4.99 4.73-9.36 7.8-13.92 10.99-7.66 5.37-11.49 8.05-16.48 9.89-9.52 3.5-17.9 2.92-22.34 2.56a59.038 59.038 0 0 1-16.34-3.7c5.77-1.77 11-4.32 17.07-7.29 2.63-1.28 13.63-6.77 26.37-16.85 2.42-1.92 10.75-8.62 20.14-19.04 8.93-9.91 14.51-18.39 16.11-20.87 4.05-6.27 9.47-14.77 13.92-27.1.8-2.21 4.37-12.33 6.23-26.37 1.25-9.46 1.18-16.62 1.1-22.34-.13-9.54-.36-21.14-4.03-35.16-.87-3.31-.42-1.03-5.86-18.31-3.47-11.03-3.97-12.97-5.86-16.48-.28-.52-.58-1.07-.89-1.64 1.94 1.57 3.58 2.99 4.92 4.2zM547.57 567.38c-5.98-3.03-9.46-7.14-12.08-10.25-2.21-2.61-5.23-6.19-7.32-11.72-2.07-5.46-2.12-9.89-2.2-16.48-.09-7.71 1.01-13.53 1.46-15.75.94-4.54 2.06-7.67 4.03-13.18 2.43-6.8 4.71-11.85 5.49-13.55 3.65-7.96 6.77-12.98 12.45-22.34 3.59-5.91 7.12-11.86 10.67-17.79-1.92 4.68-.98 9.55 2.33 11.29 2.76 1.44 6.36.29 9.08-2.58-4.41 9.22-8.7 18.92-12.9 27.82-1.68 3.75-4.33 9.01-5.64 12.85-2.3 6.73-3.84 13.64-4.71 20.68-1.08 8.08-.54 16.08 3 23.58 1.37 3.01 2.93 6.18 5.74 8.29 5.01 3.94 11.73 3.15 17.56 2.27 7.77-1.26 15.23-3.63 22.27-7.2 7.37-3.84 14.12-8.87 20.26-14.39 20.42-17.77 35.16-41.83 41.86-68.05 3.66-14.69 5.47-29.84 5.5-44.98.04-4.69 0-9.38-.48-14.07-.25-2.43-.67-4.98-1.52-7.32-1.17-3.47-2.64-6.85-4.74-9.93-4.95-7.6-13.91-11.97-22.96-11.09-3.84.28-7.55 1.8-10.68 3.96-4.01 2.76-7.41 6.01-10.62 9.61-4.69 5.37-8.29 11.24-12.03 17.18-2.45 3.9-4.79 7.93-7.01 11.97-3.24 6.04-6.86 11.69-10.74 17.36-2.61 3.78-5.24 7.76-7.41 11.85-.38.74-.77 1.5-1.15 2.25.54-3.59-.6-6.86-3.19-8.21-2.94-1.54-6.85-.13-9.61 3.18.1-.17.2-.33.3-.5 14.41-23.91 13.66-23.39 19.77-32.96 9.93-15.54 9.01-12.37 16.48-24.54 4.41-7.18 7.18-12.27 13.18-18.68 5.26-5.61 9.71-8.73 12.82-10.62 6.08-3.69 9.66-5.87 14.65-5.86 9.14.02 15.76 7.38 18.68 10.62 3.77 4.19 5.86 8.61 6.96 10.99 1.76 3.79 2.54 6.73 3.3 9.52 4.65 17.07 4.65 14.44 6.96 24.17 1.77 7.46 3.13 13.18 4.03 21.24.53 4.77 1.13 12.35.73 21.61-.27 6.16-.79 16.81-4.39 29.3-5.85 20.25-16.47 33.84-23.07 42.11-6.51 8.16-12.71 14.05-17.58 18.68-5.89 5.59-10.65 10.08-17.94 15.01-7.29 4.94-13.36 7.78-18.68 10.25-8.18 3.8-12.94 6.01-20.14 7.32-7.77 1.42-13.82.96-16.11.73-4.51-.45-9.24-.92-14.65-3.66zm16.28-120.57c1.33-2.54 3.88-3.82 5.7-2.87 1.82.95 2.23 3.78.9 6.32-1.33 2.54-3.88 3.82-5.7 2.87-1.82-.95-2.23-3.78-.9-6.32zm78.7-58.81-9.18-9.36c3.59-.63 7.37-.17 10.75 1.18 1.81.7 3.42 1.68 4.85 2.87-2.13 1.67-4.26 3.44-6.41 5.31zm9.47-2.13c2.52 3.23 4.25 7.19 5.4 11.17 1.3 4.92 1.16 10.23 1.17 15.36-.12 6.74-.41 13.61-1.16 20.28-3.52 34.1-17.15 65.23-42.72 88.54-8.1 7.47-16.86 14.34-27.18 18.39-4.56 1.8-9.31 3.16-14.14 3.99-1.52.27-3.31.5-4.81.65-2.26.17-4.12.2-5.85-.46-1.07-20.88 8.53-50.56 26.67-82.13 17.63-30.69 40.9-58.81 62.63-75.78zm-11.94 4.32c-1.45 1.31-2.91 2.66-4.36 4.06l-11.19-11.28c1.66-1.28 3.42-2.43 5.28-3.25zm-6.73 6.36c-1.61 1.59-3.22 3.23-4.83 4.91l-11.61-11.38c1.45-1.62 2.98-3.17 4.64-4.63.14-.12.28-.25.42-.37zm-7.09 7.31c-1.91 2.05-3.81 4.16-5.7 6.33l-10.69-10.93c1.56-2.3 3.18-4.53 4.9-6.66zm-7.86 8.84c-11.86 13.94-23.18 29.98-32.83 46.77-17.22 29.98-26.91 58.49-27.31 79.81-.38-.72-.72-1.45-1.08-2.14-4.19-8.36-3.44-17.64-1.93-26.68.97-5.44 2.19-10.84 4.22-15.97.79-2 3.22-7.37 4.08-9.39 5.41-12.01 11.08-25.7 16.87-37.45 2.08-4.04 4.47-7.75 7-11.54 3.8-5.73 7.52-11.71 10.76-17.8 3.02-5.57 6.35-10.95 9.82-16.24l10.4 10.64zm-51.8 178.49c-1.25-4.01-2.56-9.02-3.55-14.89 2.45.2 5.23.27 8.29.11 1.32.55 2.8 1.1 4.42 1.6 3.95 1.23 7.42 1.8 11.35 2.2 10.49 1.07 17.24 1.77 26.37.37 9.2-1.41 15.86-4.19 19.77-5.86 9.33-3.97 15.9-8.6 19.04-10.99 8.42-6.38 13.52-12.63 17.21-17.21 6.84-8.5 10.64-15.59 14.65-23.07 7.75-14.46 11.84-26.35 13.18-30.39 2.1-6.34 4.95-16.06 6.96-28.2 2.2-13.25 2.42-23.43 2.56-31.49.18-10.11-.31-16.95-.73-22.7-.79-10.61-1.81-15.89-3.66-21.24-1.57-4.52-2.69-7.65-5.49-10.99-1.59-1.89-3.06-3.06-4.86-4.27 4.4-1.77 9.85-3.67 16.21-5.25 3.85-.96 15.81-3.74 31.86-3.66 17.06.09 29.77 3.36 39.18 5.86 13.79 3.65 24.65 8.26 31.86 11.72 13.68 6.55 23.09 13.19 25.63 15.01 6.01 4.31 13.18 9.52 20.87 17.94 17.63 20 28.96 41.79 31.73 57.23-6.53-8.21-13.52-12.7-16.35-14.39-.97-.58-2.3-1.36-3.95-2.2-3.09-2.18-6.89-4.31-11.43-5.85-6.59-2.24-11.96-2.23-22.7-2.2-7.02.02-15.4.09-26.37 2.2-5.76 1.11-15.32 3.01-26.73 8.42-9.96 4.72-16.66 9.89-20.87 13.18-5.15 4.02-12.8 10.08-20.14 19.77-7.25 9.57-10.49 17.79-15.75 31.13-5.95 15.09-8.61 26.83-9.16 29.3-2.12 9.54-4.47 20.16-4.03 34.42.41 13.29 3.05 22.99 4.03 26.37 2.26 7.77 4.52 15.26 10.62 23.07a52.27 52.27 0 0 0 4.48 5.02c2.57 4.01 5.4 6.77 7.24 8.53 5.7 5.45 11.22 8.1 15.01 9.89 3.63 1.71 7.08 2.94 10.34 3.85-2.28 3.11-10.71 5.31-26.82 3.84-13.2-1.2-47.37-5.01-68.48-10.25-14.56-3.62-23.85-5.95-36.62-10.25-11.89-4-18.43-7.06-31.49-13.18-8.29-3.88-13.45-6.65-18.31-12.08-3.72-4.16-5.92-8.39-8.42-13.18-3.9-7.47-5.85-13.64-6.96-17.21zm227.78 135.13c-2.82-6.91-5.49-10.62-5.49-10.62-4.13-5.74-6.19-8.61-8.79-11.72-5.56-6.65-7.55-8.25-13.18-14.65-2.03-2.31-4.8-5.55-8.02-9.6.85-.09 1.69-.18 2.53-.28l-.73-10.21c1.41-.35 2.38-.72 3.29-1.14 2.1-.97 3.78-2.18 5.08-3.3 3.77.75 7.22 1.14 10.3 1.47 9.82 1.07 17.62.44 21.61 0 12.39-1.38 21.27-4.79 23.07-5.49 10.41-4.08 17.35-9.18 21.24-12.08 9.93-7.42 15.92-14.74 20.87-20.87 2.73-3.39 11.44-14.48 19.41-31.13 7.08-14.8 10.2-26.93 12.08-34.42 3.81-15.16 4.86-26.81 5.13-30.03 1-12.19 1.69-20.52-.73-31.49-.92-4.17-2.46-10.86-6.43-18.34.28-3.08.34-6.8-.16-10.95-.7-5.8-2.21-9.98-3.66-13.92-.92-2.49-3.36-8.79-9.52-19.04-3.24-5.38-7.47-12.35-14.28-20.51-.81-.97-2.59-3.07-5.27-5.9l4.13-2.5a3.01 3.01 0 0 1 2.69-.21c34.4 14.34 62.31 46.98 78.59 91.9 23.96 66.14 19.63 146.89-11.04 205.72-36.18 69.39-100.22 98.15-185.27 83.26-.41-3.61-.79-7.23-1.13-10.87-.23-2.42.44-4.83 1.89-6.78a33 33 0 0 0 1.37-1.97c1.94-2.97 2.93-5.43 4.58-9.5 2.15-5.32 3.22-7.99 4.13-12.03.28-1.26.57-2.9 1.01-5.64 5.28-1.04 9.84-1.94 14.6-2.86.88-.17 6.6-1.28 12.45-4.76 1.95-1.16 3.84-2.54 4.39-4.76.44-1.74-.12-3.26-.73-4.76zm-69.21-103.64c.46 3.16.8 5.5 1.27 7.59a98.723 98.723 0 0 1-6.77-17.48c-3.39-12.06-3.67-21.95-3.66-26.37.02-7.68.99-13.06 2.93-23.8 1.03-5.71 2.46-13.49 5.49-23.44 1.68-5.52 4.25-13.82 9.16-23.8 3.13-6.38 7.99-16.11 17.21-26.73 11.75-13.54 23.69-20.59 26.73-22.34 9.62-5.51 17.86-8.06 22.7-9.52 12.26-3.71 22.12-4.53 25.63-4.76 3.3-.22 6.44-.28 9.43-.22-5.46.71-19.39 3.06-35.43 11.21-9.09 4.62-15.44 9.37-19.04 12.08-9.44 7.12-15.56 13.63-16.85 15.01-8.78 9.44-13.79 17.93-17.21 23.8-1.41 2.42-8.23 14.29-13.92 31.49-1.69 5.12-4.85 15.44-6.96 28.93-1.98 12.67-2.2 22.73-2.2 27.83 0 4.31.17 11.58 1.46 20.51zm2.93-16.11c.02-6.75.47-15.35 2.2-26.37 2.36-15.04 5.93-27 8.42-34.42 6.26-18.6 13.41-31.29 16.11-35.89 5.16-8.79 8.47-12.68 9.89-14.28 6.03-6.81 11.88-10.83 19.04-15.75 6.05-4.15 10.77-6.78 18.31-10.99 6.83-3.81 10.24-5.71 14.28-7.32 8.71-3.48 16.1-4.67 19.77-5.13 6.66-.83 13.27-1.65 21.61.37 10.84 2.63 17.86 8.43 20.87 10.99 2.71 2.3 9.15 8.2 13.92 17.94 4.66 9.52 5.28 17.74 5.86 25.27.77 10.01-.29 17.58-1.46 25.63-1.7 11.66-4.18 20.17-6.23 27.1-1.17 3.97-2.36 7.99-3.72 12.13-.51-1.06-1.29-1.92-2.3-2.45-2.17-1.14-4.91-.52-7.22 1.34 1.59-4.44 2.82-8.74 4.09-13.21 3.89-13.74 6.43-22.67 5.86-35.16-.25-5.39-.8-15.39-6.23-26.73-1.86-3.88-4.1-8.67-8.79-13.55-3.35-3.49-6.99-6.03-10.53-7.9 2.37-.81 4.7-2.85 6.2-5.72 2.55-4.88 1.77-10.31-1.73-12.14s-8.41.64-10.96 5.51c-1.69 3.24-1.92 6.73-.85 9.24-3.42-1.13-6.41-1.74-8.5-2.17-3.58-.72-13.13-2.31-24.9.37-11.5 2.61-19.13 7.92-23.44 10.99-8.25 5.87-13.07 11.87-17.94 17.94-6.45 8.03-10.14 14.63-14.65 22.7-4.17 7.45-9.03 16.24-13.55 28.56-3.26 8.88-6.39 17.42-7.69 29.3-1.02 9.27-2.28 20.75 2.93 33.69 2 4.97 5.43 13.2 13.92 19.04 5.41 3.73 10.45 4.81 15.38 5.86 14.42 3.08 26.31.21 31.49-1.1 11.14-2.82 18.65-7.36 25.27-11.35 5.06-3.06 13.7-8.36 22.7-17.94 1.75-1.86 8.83-9.55 15.38-21.61.75-1.37 1.43-2.71 2.07-4.02.28 2.11 1.29 3.86 2.97 4.73 1.77.92 3.91.69 5.9-.43a147.83 147.83 0 0 1-7.64 15.47c-6.03 10.61-12.06 18.32-15.75 22.7-5.9 7.03-12.01 14.32-22.34 21.24-4.44 2.97-12.11 8.03-23.44 10.99-8.87 2.32-15.78 2.26-22.34 2.2-8.7-.08-18.52-.17-30.03-4.76-4.26-1.7-11.11-4.51-17.94-10.99-2.39-2.27-7.86-7.55-11.35-16.11-2.93-7.17-2.97-12.96-2.93-23.8zm122.68-35.52c-16.88 26.73-51.08 58.34-80.63 63.17-1.81-.67-3.61-1.55-5.43-2.74-8.09-5.32-11.26-13.28-12.82-17.21-3.16-7.94-3.08-14.66-2.93-21.61.22-10.11 2.18-17.4 4.76-26.73 1.87-6.78 4.77-17.04 10.99-29.66 7.86-15.95 16.44-26.34 18.31-28.56 9.46-11.28 17.98-17.59 20.51-19.41 4.15-2.99 7.25-5.22 12.08-7.32 12.58-5.48 23.77-4.39 26.73-4.03 2.83.34 7.22.92 12.23 2.96 20.11 19.5 16.42 59.13-3.8 91.15zm7.72-103.58c1.29-2.47 3.77-3.72 5.55-2.79 1.77.93 2.17 3.68.88 6.15s-3.77 3.72-5.55 2.79c-1.78-.93-2.17-3.68-.88-6.15zm12 65.07c.32-1.6.59-3.2.83-4.78l10.48 6.48c-.06 1.27-.16 2.7-.31 4.28zm10.5 10.31c-.26 1.92-.59 3.98-1.01 6.18l-12.16-5.91c.74-2.42 1.39-4.82 1.95-7.22zm-9.2-18.88c.21-2.02.34-4.02.4-5.99l9.38 4.59c.16 1.83.28 3.83.32 5.99 0 .32.01.72.01 1.2l-10.12-5.8zm.37-11.19c-.42-10.25-3.07-19.65-8.31-27.48 2.32 1.84 5.34 4.62 8.15 8.48 4.37 6 6.01 11.54 7.32 16.11.32 1.13.95 3.43 1.5 6.78l-8.67-3.89zm-17.74 60.1c4.9-8.2 8.91-16.68 11.87-25.14l12.51 6.68c-.18.77-.38 1.55-.58 2.34-5.83 22.41-16.43 37.55-19.77 42.11-4.82 6.57-10.87 14.68-21.61 22.34-11.09 7.91-21.57 11.34-27.1 12.82-13.62 3.65-24.19 2.77-26.37 2.56-2.34-.22-4.53-.43-6.64-.75 30.43-7.32 59.94-33.26 77.69-62.97zm22.84 7.27c1.22-2.33 3.56-3.51 5.24-2.63 1.67.88 2.05 3.47.83 5.8-1.22 2.33-3.56 3.51-5.24 2.63-1.67-.88-2.05-3.47-.83-5.8zM571.94 616.4c2.32 3.25 7.38 9.72 15.53 15.8 2.18 1.63 7.83 5.64 27.83 13.18 11.95 4.5 21.9 7.58 28.56 9.52 7.55 2.2 20.07 5.62 35.89 8.79 15.62 3.13 26.88 4.5 38.09 5.86 0 0 10.66 1.3 24.17 1.46 0 0 4.02.05 10.07-.53l.55 3.82c-69.21 6.96-178.34-25.63-184.93-56.03l4.25-1.89zm-28.89 1c1.3-2.58 4.39-3.71 7.04-2.56l13.78 5.94c12.52 39.15 114.31 65.48 188.7 59.54l4.07 4.62 14.65 16.11c-14.17-4.4-37.82-5.73-65.18-5.86l-151.61-.37c-14.31-.34-26.06-1.89-33.27-5.59-.71-.37-1.57-.28-2.18.24-.9.77-.91 2.15-.03 2.94 5.63 5.03 17.96 7.29 35.11 7.53l124.14-1.46s20.64-.92 55.3 1.1c0 0 12.71.74 29.66 5.86 1.77.53 8.61 2.66 16.11 7.69 6.92 4.64 8.98 8.12 9.89 10.99.39 1.24 1.7 5.36-.37 8.06-.9 1.17-2.2 1.65-4.76 2.56-1.63.58-3.34 1.05-7.69 1.83-1.34.24-4 .7-9.52 1.46-.87.12-1.67.23-2.42.33.2-1.2.44-2.65.74-4.38.45-2.58.81-4.63 1-5.13.65-1.72 1.9-3.29 3.73-4.68 1.01.73 2.01 1.49 2.98 2.28 1.5 1.21 3.69 4.08 5.95 3.23 1.58-.6 1.08-2 .47-3.36-2.09-4.66-6.54-6.83-10.78-9.27-4.57-2.63-9.31-4.97-14.21-6.91-9.63-3.82-19.92-6.13-30.31-6.15-10.95-.02-28.92-.28-52-.37-61.57.17-134.76 3.3-153.07-5.49-9.4-4.51-14.65-16.11-6.59-28.56 10.71-15.42 20.92-32.85 30.66-52.15zm-103.98 11.31 21.28-8.49a.85.85 0 0 1 .76.05c.14.08.38.26.46.62 4.84 23.99 1.27 42.79-7.89 56.86-.41.63.44 1.3.96.75 4.59-4.9 10.49-12.28 12.05-19.16.69-3.03 1.15-6.21 1.42-9.52l3.64-1.37c.83-.31 1.73.26 1.8 1.14 1.05 12.98-2.36 25.89-6.98 38.79-.25.7.74 1.16 1.11.51 4.97-8.77 8.78-19.36 11.19-32.13 11.49.3 24.38-1.06 38.51-4.07-.42.69-.86 1.42-1.32 2.2-2.57 4.27-4.9 8.69-7.69 12.82-3.34 4.93-5.27 7.06-6.23 11.35-.36 1.62-.49 3.13-.5 4.46-10.88 6.01-20.66 14.67-29.58 26.23-2.57-1.15-5.49-2.42-9.36-1.93-4.77.61-7.83 3.47-8.93 4.67a11.6 11.6 0 0 0-1.53 2.08c-6.84-9.68-13.88-17.12-22.01-23.35-.8-.61-1.91-.6-2.69.02l-7.64 6.01c-2.08 1.64-4.75 1.92-7.13.74s-3.77-3.46-3.73-6.11l.26-17.64c13.44-9.13 27.57-21.03 29.84-44.78.03-.26 0-.52-.07-.77zm-28.25 73.25c3.88 1.92 8.39 1.45 11.79-1.23l6.29-4.95c7.91 6.29 14.78 13.91 21.56 23.96-.21.81-.44 1.66-.77 2.63-.79 2.35-3.29 6.02-7.82 12.7-5.35 7.89-9.09 13.09-9.12 13.14l-.8 1.11c-2.93 4.06-4.27 5.92-5.02 9.13-.23.96-.38 1.93-.46 2.88-26.94-16.13-45.24-32.81-54.4-49.62-9.5-17.44-9.61-34.99-.33-53.56 2.65 5.29 5.54 9.68 8.81 13.35a6.768 6.768 0 0 0 5.06 2.28c.54 0 1.09-.07 1.64-.2 5.39-1.34 10.34-3.24 14.85-5.68l2.84 4.97-.28 18.97c-.06 4.32 2.3 8.2 6.18 10.12zm23.86-72.01c-2.27 20.56-14.03 31.14-26.5 39.76l-2.31-4.05c4.11-2.67 7.79-5.85 11.01-9.53 6.77-7.74 11.67-17.86 14.61-30.13zm-.23-38.74c.29.36.5.76.62 1.18 2.34 7.89.57 17.23-5.25 27.75l-.11.21-.04.23c-5.27 27.86-19.37 44.27-43.12 50.17-1.39.34-2.84-.11-3.8-1.18-3.61-4.06-6.77-9.08-9.64-15.35-.5-1.1-.43-2.36.2-3.38 6.18-10 13.94-19.9 23.08-29.44.18.04.37.06.55.1.2 2.22.94 7.95 3.51 13.41.31.66 1.11.93 1.76.59.61-.32.85-1.06.56-1.68-2.19-4.67-2.96-9.67-3.22-12.02 5.3.29 11.76-1.09 19.07-3.93.44-.17.68-.65.57-1.11a.938.938 0 0 0-1.19-.66c-12.58 3.9-21.91 3.83-27.01-.22-3.82-3.03-5.44-8.43-4.8-16.02.11-1.36.64-2.66 1.48-3.66 6.44-7.68 19.46-10.98 29.51-10.84 7.99.11 14.45 2.3 17.28 5.86zm-17.84-46.66c1.13-10.53-.47-22.06-4.76-34.37 5.77 5.52 11.63 7.28 17.72 5.34-.68 5.06-.12 9.89 1.7 14.67-5.16 7.24-6.55 16.08-7.9 24.63-1.52 9.62-3.09 19.55-9.9 27.7-2.85.18-5.84.6-8.79 1.29a81.461 81.461 0 0 0-3.69-5.24c9.01-10.05 14.26-21.48 15.61-34.02zm-47.69 16.08c1.34-.68 2.92-.72 4.34-.11 11.09 4.73 20.53 12.86 28.08 24.19-6.26 1.91-12.1 5.05-15.92 9.6a9.49 9.49 0 0 0-2.11 4.86c-10.46.5-19.1-3.14-26.35-11.1-.3-.33-.49-.75-.55-1.19-1.48-12.66 2.61-21.24 12.5-26.24zm-23.91 51.72c-3.01-8.58.61-16.96 9.45-22.14a.5.5 0 0 0 .07.08c7.4 8.12 16.47 12.22 27.01 12.22.52 0 1.05-.01 1.58-.03-.09 7.16 1.93 12.43 6.04 15.7 1.2.95 2.55 1.72 4.06 2.31-2.69 2.85-5.26 5.73-7.7 8.64-10.03 1.75-19.29.83-26.81-2.69-6.76-3.16-11.62-8.16-13.7-14.07zm-20.78 35.11c-5.41-4.68-8.3-12.81-3.34-19.27a7.447 7.447 0 0 1 5.99-2.9l24.73.31c1.77 1.31 3.72 2.48 5.85 3.47 2.59 1.21 5.37 2.14 8.3 2.77-2.56 3.56-4.85 7.04-6.91 10.46-14.27 13.49-27.47 11.34-34.61 5.15zM353.16 707c-9.41-22.35-4.1-46.74 16.22-74.53 2.12.28 4.31.43 6.55.43 2.22 0 4.5-.14 6.82-.42-4.45 5.54-8.44 11.16-11.93 16.81a6.477 6.477 0 0 0-.77 5c-10.88 20.21-11.18 40.05-.85 59 9.64 17.69 28.93 35.16 57.35 51.91.19 1.65.61 3.24 1.25 4.75 1.81 4.29 4.87 6.49 8.74 9.27.89.64 1.93 1.39 3.14 2.18 0 .06 0 .13.01.19-45.3-19.54-73.62-43.96-86.51-74.59zm85.72 68.95c-3.95-2.84-6.07-4.47-7.38-7.57-1.15-2.72-1.37-5.84-.63-9.01.57-2.43 1.52-3.75 4.36-7.69l.8-1.11c.04-.05 3.8-5.29 9.19-13.23 4.88-7.19 7.33-10.8 8.3-13.67.46-1.36.75-2.51 1.01-3.53.54-2.13.87-3.41 2.23-4.91.62-.68 2.91-2.93 6.45-3.38 2.82-.36 5.02.63 7.34 1.67 2.2.99 3.12 1.79 4.18 2.73 1.04.92 2.23 1.96 4.54 3.1.97.48 1.82.82 2.59 1.07-.08.38-.05.79.11 1.18.4.98.74 2.01 1.01 3.04.87 3.37.76 6.02.67 8.16v.04c-.19 4.46-1.24 7.77-1.74 9.36-1 3.15-2.17 5.49-2.78 6.6-1.12 2.04-1.87 2.95-2.68 3.91-.84 1.01-1.72 2.05-2.83 4.18-.71 1.35-.97 2.11-1.31 3.09-.34.98-.81 2.33-2.04 5.09-1.77 4-2.32 4.58-2.96 5.01-1.5 1.02-3.42.98-4.77.77a2.014 2.014 0 1 0-.62 3.98c.73.12 1.44.17 2.13.17 2.11 0 4-.54 5.55-1.6 1.59-1.08 2.48-2.46 4.37-6.7 1.29-2.91 1.79-4.35 2.16-5.39.32-.91.51-1.46 1.08-2.54.92-1.75 1.58-2.55 2.35-3.47.85-1.02 1.82-2.17 3.12-4.56.68-1.24 1.98-3.84 3.08-7.32.56-1.76 1.71-5.41 1.92-10.41v-.04c.1-2.27.23-5.39-.79-9.34-.2-.79-.45-1.57-.72-2.34 1.09.17 2.11.44 3.64 1.3 1.94 1.09 4.65 3.12 6.55 6.55 1.67 3.01 2.39 6.11 2.11 9.01-.6 1.23-1.01 2.55-1.19 3.8-.44.77-1.08 1.73-2.03 3.15-.59.89-1.29 1.94-2.12 3.2-.03.05-3.43 5.28-7.01 11.44-2.43 4.18-3.58 6.58-4.5 8.52-1 2.09-1.66 3.47-3.45 5.97-3.21 4.48-5.15 7.18-8.74 8.87-4.65 2.2-9.3 1.37-13.8.57-8.02-1.42-13.28-5.21-16.75-7.71zm66.6 25.36c1.6 1.1 3.54 1.65 5.55 1.65s3.89-.5 5.69-1.49c2.85-1.57 5.24-4.24 7.11-7.95 1.06-2.09 1.85-4.28 2.61-6.39.33-.9.66-1.83 1.01-2.73 1.47-3.78 3.36-7.5 5.19-11.09 1.2-2.35 2.43-4.78 3.56-7.23 2.63-5.74 4.16-10.74 4.7-15.39 2.76 3.8 4.2 8.15 3.86 12.23-.01.16-.03.31-.05.47-.68 1.29-1.24 2.78-1.67 4.49-.11.43-.07.86.09 1.24-1.05 2.51-2.44 4.91-3.74 7.14-4.47 7.69-9.1 15.65-14.38 22.95-3.46 4.79-7.78 9.85-13.55 11.14-3.84.86-8.27.06-13.96-2.52-7.11-3.22-12.26-7.26-15.31-12-3.65-5.66-4.14-12.76-1.24-17.67.23-.39.31-.84.26-1.26.08-.11.16-.22.23-.33 2-2.78 2.76-4.37 3.81-6.58.89-1.87 2-4.19 4.35-8.23 3.52-6.07 6.87-11.21 6.9-11.26.81-1.25 1.51-2.29 2.09-3.17.81-1.22 1.45-2.18 1.97-3.04.32-.29.55-.68.63-1.13.53-1.05.87-2.03 1.1-3.3.03-.15.05-.3.07-.45.77-1.37 1.86-2.51 3.01-2.79 2.64-.65 5.57-.14 8.6.5 8.51 1.77 15.35 3.78 21.08 7.83.72.5 1.4 1.04 2.05 1.61.08 5.2-1.38 10.91-4.56 17.85-1.09 2.38-2.31 4.77-3.48 7.08-1.88 3.69-3.82 7.5-5.36 11.46-.37.94-.71 1.9-1.05 2.82-.76 2.09-1.47 4.07-2.42 5.94-1.5 2.97-3.33 5.06-5.46 6.23-2.35 1.3-5.18 1.32-7.03.05-.92-.63-2.17-.39-2.8.52-.63.91-.39 2.17.52 2.8zm83.96-16-.03-.5c-.11-1.93-.22-3.75.46-5.16.32-.65 1.02-1.23 1.71-1.4.36-.09.65-.06.86.09.52.37 1.15.45 1.71.29 1.99 1.7 3.91 3.58 4.58 5.85.41 1.38.36 2.86.09 4.37-1.09 1.75-1.69 3.74-1.64 5.7a142.79 142.79 0 0 1-16.24 33.2c-1.59 2.4-3.34 4.87-5.69 6.36-1.98 1.26-4.42 1.89-7.47 1.9 2.06-1.21 3.94-2.73 5.52-4.5 11.2-12.56 17.09-29.4 16.15-46.2zm46.32 39.42c.66 3.26 2.74 5.86 4.41 7.96 1.37 1.72 2.78 3.46 4.23 5.19-2.99 2.79-4.13 6.95-5.16 10.68l-.1.38c-.88 3.19-2.43 7.57-5.73 8.78-1.94.7-4.25.27-6.66-.28-12.73-2.92-24.81-7.16-35.91-12.6-2.2-1.08-4.27-2.19-5.39-3.95-1.59-2.49-1.46-7.79-.5-11.91a146.4 146.4 0 0 0 16.68-35.04c.36-1.12.71-2.29.98-3.51.74-.99 1.73-1.84 2.89-2.42 3.26-1.62 7.09-1.2 9.73-.57 2.53.61 4.95 1.58 7.51 2.62.95.38 1.92.78 2.9 1.15 1.68.64 3.4 1.23 5.07 1.79 3.82 1.3 7.43 2.53 10.77 4.41 4.73 2.67 7.94 6.37 9.01 10.32-3.3 3.24-6.84 5.84-10.6 7.78-3.09 1.59-4.86 5.55-4.12 9.21zm11.27 16.21c2.57 2.9 5.3 5.71 8.27 8.28.09 3.01 1.33 6.1 2.89 8.61.54.87 1.16 1.7 1.82 2.49-.05 2.53-.35 5.04-1.47 7.28-.61 1.22-1.44 2.3-2.35 3.32-3.71-.72-7.39-1.81-10.46-3.98-3.2-2.25-5.64-5.88-5.75-9.75 1.52-2.28 2.42-4.97 3.03-7.19l.1-.38c.9-3.28 1.83-6.65 3.91-8.69zm-60.79-63.04c-1.14 2.35-.99 4.9-.86 7.15l.03.49c.88 15.75-4.63 31.53-15.13 43.3-2.83 3.18-6.83 5.4-10.98 6.09h-.01c-8.41-1.86-17.11-5.48-25.91-10.81-3.52-2.13-7.04-4.58-8.97-7.99-1.63-2.9-1.97-7.3.6-9.76.39-.37.6-.87.62-1.37.93-1.13 1.81-2.3 2.64-3.44 5.4-7.46 10.07-15.5 14.59-23.28 2.33-4.01 4.95-8.52 5.73-13.6.97-1.55 2.21-2.51 3.81-2.98 3.42-1 7.3-.21 10.64.69 9.46 2.55 18.42 6.82 26.23 12.46-1.31.66-2.42 1.76-3.05 3.06zm-102.7 139.84c5.65 3.06 12.03 7.01 17.87 10.55.83.5 1.65-.67.89-1.28-7.45-6.01-18.6-14.54-24.6-16.98a.533.533 0 0 1-.32-.32l-5.16-13.05 6.85-4.93a7.584 7.584 0 0 0 2.6-9.08l-12.13-29.61c12.42 13.27 27.73 23.24 44.09 29.89.47.8.94 1.6 1.41 2.38.79 1.32 1.61 2.69 2.37 4.04 1.95 3.44 4.26 8.02 4.91 12.87.51 3.87-.18 7.72-1.89 10.56-1.24 2.04-.63 4.64 1.39 5.9 2.39 1.5 4.7 3.17 6.88 4.95 1.06.87 2.04 1.74 2.36 2.8.12.41.1.79-.05 1.06-.31.54-1.09.72-2.68.95-.83.12-1.68.25-2.54.53-3.52 1.16-5.43 4.41-6.2 7.69-11.95-6.02-24.84-7.62-38.54-5.35a40.637 40.637 0 0 0-5.17-5.35l7.67-8.24zm-59.01 1.01c7.55-2.79 18.29-2.66 28.73.34 9.39 2.7 17.5 7.43 22.87 13.27a32.907 32.907 0 0 0-12.91 6.95c-2.28 2-4.49 4.14-6.64 6.37-19.87-.73-32.5-3.15-39.51-7.53-1.57-.98-2.57-2.61-2.75-4.48-.86-8.89 5.08-13.02 10.22-14.92zm-3.13 73.07c-6.01 0-11.48-3.48-13.93-8.88-2.92-6.43-3.47-15.09-1.47-23.17 1.92-7.74 5.82-13.76 10.81-16.72 7.51 3.85 19.39 6.08 36.77 6.9-1.27 3.69.07 7.94 3.45 10.16-3.88 9.25-5.6 17.01-5.39 24.12.08 2.78.87 5.36 2.18 7.59h-32.41zm223.22 3.3H467.33c-6.16 0-11.12-4.84-11.31-11.01-.19-6.47 1.43-13.63 5.04-22.27 34.62 12.13 109.74 16.44 186.88 15.11 1.23 5.08 1.84 9.47 1.82 13.07a5.15 5.15 0 0 1-5.14 5.1zm14.42-75.25c-5.98 5.35-13.52 8.67-21.52 9.38-21.96 1.95-44.68 2.37-67.78 1.55-1.2-.04-1.32 1.74-.12 1.86 27.83 2.85 53.54 2.27 77.63-.92l12.25 11.39c.91.85.6 2.36-.57 2.78-19.82 7.19-49.86 8.79-83.15 8.61-.35 0-.37.51-.02.54 25.71 2.19 47.89 2.35 65.64-.02l8.93 9.67c2.7 2.92.6 7.66-3.37 7.63-84.23-.65-148.85-5.19-182.89-15.81-2.82-.88-4.1-3.83-3.3-6.34.45.01 1.4-2.17 1.4-2.17 4.3-3.92 8.67-7.3 13.26-9.32 22.01-9.68 44.67-.46 67.17 16.48-6.1-7.04-12.54-12.5-19.29-16.48.33-2.41 1.46-5.14 3.75-5.9.53-.17 1.18-.27 1.88-.38.22-.03.45-.07.68-.11 7.83 4.74 15.54 10.21 23.18 16.11 1.19.92 2.66-.74 1.59-1.8-5.86-5.83-12.53-11.38-20.28-16.55.14-.18.28-.38.4-.59.71-1.24.86-2.74.41-4.23-.65-2.15-2.16-3.53-3.66-4.75a72.386 72.386 0 0 0-7.29-5.25c-.14-.09-.17-.26-.08-.4 2.22-3.66 3.09-8.34 2.44-13.17-.42-3.17-1.43-6.17-2.62-8.86 19.37 7.59 41.51 14.34 65.85 20.44.86.22 1.24-1.04.4-1.33-22.26-7.77-42.38-15.48-58.19-23.06 17.5 4.41 35.4 5.27 51.63 2.55-71 .05-128.48-36.46-136.58-106.18 2.37.99 5.05 1.84 8.1 2.38 2.47.44 5.11.91 7.86.91s5.49-.45 8.36-1.8c1.5-.71 2.77-1.55 3.91-2.53-.28 4.45.9 9.18 3.49 13.39-5.34 26.89 6.51 52.19 22.87 66.06-11.71-16.68-21.7-38.17-17.98-60.15 3.25 3.05 7.4 5.72 12.4 7.99 3.23 1.46 7.74 3.21 12.55 3.21 1.3 0 2.63-.13 3.95-.42 2.51-.56 4.75-1.64 6.77-3.05 0 2.44.67 4.88 1.79 6.88 2.38 4.23 6.4 7.05 10.39 9.46 10.09 6.11 20.11 10.1 29.77 11.84 1.89.34 4.15.66 6.53.66 3.26 0 6.74-.6 9.81-2.54 1.04-.66 1.96-1.43 2.8-2.28.02 2.91.53 5.75 1.85 7.81 1.69 2.63 4.39 4.11 7.01 5.4 11.37 5.58 23.74 9.92 36.78 12.91 1.72.39 3.49.75 5.28.75 1.22 0 2.45-.17 3.66-.61.45-.16.88-.36 1.29-.58.01 1.62.39 3.14 1.45 4.5 1.4 1.82 3.46 3 5.49 4.06 3.3 1.73 6.69 3.28 10.15 4.65-.51.56-1.01 1.12-1.47 1.72a17.746 17.746 0 0 0-3.64 10.58c-.04 5.77 1.68 11.92 4.9 16.71 3.08 4.59 7.24 8.33 11.46 11.92l-5.36 4.79zm54.58-35.93c.62.44 1.31.78 2.05.94 3.57.77 5.03-2.53 7.11-4.64a9.494 9.494 0 0 1 6.63-2.79c2.46-.01 4.91.98 6.66 2.71 2.98 2.94 3.67 7.49 3.61 11.69-.05 3.11-.48 6.38-2.34 8.87-2.68 3.58-7.77 4.64-12.15 3.74-4.38-.9-8.24-3.4-11.98-5.85l-2.01-1.32c-.41-.27-.88.22-.61.63.87 1.29 2.16 2.33 3.44 3.26 2.99 2.19 6.15 4.19 9.63 5.45 1.63.59 3.33 1.02 5.05 1.22.95 4.19 1.29 8.52 1.02 12.81-.1 1.54-.29 3.13-1.01 4.49-.83 1.57-2.3 2.73-3.91 3.47-3.52 1.59-7.72 1.23-11.27-.31s-6.54-4.14-9.18-6.97c-2.64-2.83-4.98-5.92-7.64-8.73-.27-.29-.6-.59-.99-.56-.38.03-.67.39-.75.77-.07.38.03.77.14 1.13 1.2 3.89 3.81 7.1 6.64 10.07a12.35 12.35 0 0 1-2.86 3.58c-1.72 1.46-4.07 2.05-6.31 1.9-2.25-.15-4.41-1-6.35-2.14-1.94-1.14-3.98-2.39-5.48-4.08-4.24-4.79-9.63-8.41-14.6-12.44-4.97-4.03-9.72-8.73-11.97-14.73-2.19-5.85-1.6-12.61.98-18.3 2.25-4.98 6.85-8.56 9.35-13.41 3.59 2.52 7.79 4.16 12.08 5.15 5.52 1.28 11.22 1.56 16.88 1.83 3.18.16 6.37.31 9.55.46.36.54.73 1.08 1.1 1.62.82 1.19 1.65 2.36 2.53 3.5 2.01 2.6 4.26 5.05 6.96 6.95zm-51.99-29.89c8.14 5.35 17.78 8.78 28.15 9.97 2.75.32 5.52.47 8.29.47 2.6 0 5.2-.14 7.79-.42-.09 1.51-.47 2.95-1.6 3.88-1.21.99-2.91 1.05-4.48 1.04-7.71-.08-15.42-.89-22.89-2.79-3.29-.83-6.57-1.9-9.38-3.79-2.81-1.89-5.13-4.71-5.81-8.03-.02-.11-.04-.22-.06-.34zm73.78-5.27c-3.05 3.07-7.19 5.51-13.01 7.68-21.2 7.91-45.52 4.87-61.96-7.74-6.74-5.17-12.31-11.87-17.42-18.3-1.75-2.2-3.24-4.19-3.68-6.4-.41-2.04.58-4.39 2.21-5.23 8.25-4.26 15.47-11.38 21.46-21.17 1.65-2.7 3.14-5.48 4.52-8.32 8.41.37 16.56 3.55 24.24 7.14 8.62 4.04 17.07 8.69 26.35 10.84 2.89.67 5.88 1.08 8.81.62.04 0 .08-.02.13-.02.5 5.32 3.61 10.02 6.57 14.07l.37.51c3.07 4.2 6.24 8.54 6.69 13.4.4 4.37-1.57 9.2-5.27 12.92zm-14.01-59.66c-3.22 1.89-7.06 2.39-10.79 2.67-5.9.45-11.86.48-17.7-.5-.61-.1-1.25-.23-1.74-.61-.3-.23-.66-.71-.61-1.11.09-.76.56-.57 1.23-.59 1.3-.04 2.6-.1 3.89-.2 2.59-.2 5.17-.52 7.73-.97 5.15-.91 10.22-2.33 15.09-4.24 2.75-1.08 5.43-2.31 8.04-3.69.54 3.7-1.93 7.33-5.15 9.23zm5.49 3.89c.91 1.02 1.81 2.04 2.72 3.07.54.61 1.1 1.25 1.29 2.04.24 1-.18 2.08-.88 2.83s-1.66 1.22-2.63 1.57c-3.84 1.38-8.13 1.07-12.01-.18-2.44-.78-4.75-1.92-6.97-3.2-1.3-.75-3.83-1.78-4.64-3.1 1.19-.44 3.44.15 4.79.13a40.088 40.088 0 0 0 15.98-3.46c.55-.25 1.19-.51 1.73-.25.26.12.45.34.64.55zm25.57 41.23c-2.31 1.34-4.98 2.13-8.07 2.39 0-.37-.03-.74-.06-1.11-.54-5.87-4.17-10.84-7.38-15.22l-.37-.51c-2.82-3.86-5.79-8.33-5.93-13.06 1.49-.74 2.81-1.79 3.77-3.15 1.7-2.43 2-5.91.29-8.33-1.3-1.84-3.55-2.92-4.61-4.91-.92-1.72-.76-3.85-.04-5.66s7.93-18.99 9.78-25.91c1.57-5.86 2.43-11.98 1.95-18-.04-.56-.85-.59-.95-.04-1.04 5.95-2.22 11.88-4.35 17.53-2.51 6.66-6.44 12.97-12.17 17.18-5.26 3.87-11.71 5.76-18.11 7.04-9.43 1.88-19.1 2.58-28.7 2.09-2.55-.13-5.15-.34-7.63.26-.1.03-.21.05-.31.08 2.12-4.77 3.99-9.63 5.82-14.4l8.47-22.29a1.83 1.83 0 1 0-3.42-1.3l-1.85 4.86c-1.8-.88-3.32-2.36-4.76-3.8-2.28-2.29-4.56-4.59-6.85-6.88-.3-.3-.68-.63-1.09-.52-.31.08-.51.39-.54.71-.04.31.06.63.17.93.67 1.79 1.91 3.3 3.23 4.68s2.76 2.66 3.92 4.17c1.01 1.3 1.8 2.77 2.35 4.32.42 1.17.68 2.4.82 3.63l-1.85 4.86c-6.83-1.75-13.09-5.29-18.92-9.28-6.03-4.13-11.69-8.78-17.82-12.77-.25-.16-.53-.33-.83-.29-.41.06-.66.52-.63.93.03.41.27.78.51 1.11 1.16 1.62 2.6 3.03 4.06 4.39 6.78 6.27 14.42 11.61 22.64 15.82 1.9.97 3.85 1.9 5.52 3.24.84.68 1.6 1.48 2.19 2.39.23.35.41.88.65 1.33-3.27 8.49-6.72 17.18-11.49 24.98a66.819 66.819 0 0 1-6.32 8.73c-1.79-4.1-5.32-7.81-10.13-10.52-3.66-2.06-7.62-3.41-11.44-4.72-1.63-.56-3.32-1.13-4.93-1.75-.94-.36-1.9-.75-2.82-1.12-2.58-1.05-5.26-2.13-8.08-2.81-3.29-.79-8.12-1.27-12.45.88-.27.13-.53.28-.79.43-.08-.5-.18-1-.33-1.49-.99-3.31-3.44-5.73-5.94-7.86-9.28-7.88-20.53-13.75-32.54-16.99-3.89-1.05-8.45-1.95-12.82-.66-.95.28-1.82.67-2.62 1.17-.72-5.28-3.54-10.47-7.94-14.62-.16-.22-.37-.41-.6-.55-.86-.76-1.77-1.49-2.74-2.17-6.67-4.7-14.79-6.85-22.58-8.48-3.5-.73-6.92-1.31-10.38-.46-.77.19-1.49.51-2.16.94-.4-2.17-1.2-4.35-2.38-6.48-2.36-4.25-5.71-6.75-8.1-8.1-2.56-1.44-4.23-1.67-5.85-1.9-1.38-.19-2.69-.37-4.86-1.45-1.84-.91-2.69-1.65-3.67-2.52-.44-.39-.91-.8-1.48-1.23 8-10.26 16.68-18.09 26.24-23.68.2.89 1.11 4.5 4.01 8.35.63.84 1.29 1.59 1.94 2.27-3.74 5.89-6.81 11.9-9.19 18.03-.75 1.93 1.99 3.23 3.03 1.44 3.56-6.11 7.12-11.37 10.67-15.78.96.62 1.78 1.06 2.34 1.36 12.38 6.61 34.49 6.05 42.85 5.86 10.01-.22 20.02-.04 30.03-.37 25.78-.83 22.9.17 60.06-.37 21.73-.32 43.49.79 65.18-.37 18.35-.98 37.81 3.13 53.41 13.07-1.89 1.66-3.24 3.55-4.03 5.63-.31.82-.55 2.14-1.2 5.85-.44 2.5-.75 4.44-.98 5.85l-.12.77c-.73 4.5-1.1 6.76-1.44 8.31-.83 3.72-1.87 6.29-3.93 11.4-1.73 4.28-2.56 6.27-4.21 8.81-.39.6-.81 1.19-1.23 1.77a13.847 13.847 0 0 0-2.67 9.56c1.62 17.26 3.95 34.17 7.11 51.67.2 1.1-.33 2.23-1.31 2.8zm162.9-64.94c-39.11 34.64-93.43 47.25-161.47 37.49-.56-4-1.08-7.98-1.56-11.97 14.59 2.49 28.57 3.73 41.92 3.73 27.53 0 52.36-5.29 74.14-15.84 30.32-14.68 54.74-39.47 72.57-73.67 15.54-29.8 24.7-65.57 26.51-103.44 1.75-36.88-3.51-73.47-15.23-105.8-8.06-22.26-18.85-41.58-32.06-57.43-14.09-16.9-30.57-29.37-48.97-37.03-2.16-.9-4.65-.71-6.66.51l-5.01 3.04c-2.56-2.53-5.65-5.41-9.24-8.45l16.62-9.35c.96-.54 2.09-.74 3.17-.57 33.28 5.42 61.55 28.14 81.75 65.7 17.94 33.35 28.47 76.37 29.65 121.14 1.28 48.68-5.61 138.34-66.14 191.96z" id="path73"/><path d="M425.25 375.31c2.11 0 4.16-.21 6.15-.62 2.66 9.01 11.37 15.63 21.68 15.63 12.42 0 22.52-9.61 22.52-21.42 0-10.96-8.7-20.02-19.87-21.27.06-.78.1-1.56.1-2.35 0-16.56-13.72-30.03-30.58-30.03s-30.58 13.47-30.58 30.03c0 16.56 13.72 30.03 30.58 30.03zm46.32-6.41c0 9.59-8.3 17.39-18.49 17.39-10.19 0-18.49-7.8-18.49-17.39s8.3-17.39 18.49-17.39c10.19 0 18.49 7.8 18.49 17.39zm-46.32-49.62c14.64 0 26.55 11.66 26.55 26 0 .76-.04 1.5-.1 2.24-11.78.68-21.14 10.01-21.14 21.38 0 .62.03 1.23.09 1.83-1.74.36-3.55.55-5.4.55-14.64 0-26.55-11.66-26.55-26s11.91-26 26.55-26z" id="path74"/><path d="M489.34 351.5c6.88 0 12.47-5.5 12.47-12.27s-5.59-12.27-12.47-12.27c-6.88 0-12.47 5.5-12.47 12.27s5.59 12.27 12.47 12.27zm0-20.51c4.65 0 8.44 3.7 8.44 8.24s-3.79 8.24-8.44 8.24c-4.65 0-8.44-3.7-8.44-8.24s3.79-8.24 8.44-8.24z" id="path75"/><path d="M483.86 408.81c0-6.76-5.59-12.27-12.47-12.27-6.88 0-12.47 5.5-12.47 12.27s5.59 12.27 12.47 12.27c6.88 0 12.47-5.5 12.47-12.27zm-20.91 0c0-4.54 3.79-8.24 8.44-8.24 4.65 0 8.44 3.7 8.44 8.24s-3.79 8.24-8.44 8.24c-4.65 0-8.44-3.7-8.44-8.24z" id="path76"/><path d="M457.49 436.65c0-6.76-5.59-12.27-12.47-12.27-6.88 0-12.47 5.5-12.47 12.27s5.59 12.27 12.47 12.27c6.88 0 12.47-5.5 12.47-12.27zm-20.91 0c0-4.54 3.79-8.24 8.44-8.24 4.65 0 8.44 3.7 8.44 8.24s-3.79 8.24-8.44 8.24c-4.65 0-8.44-3.7-8.44-8.24z" id="path77"/><path d="M450.52 476.38c6.88 0 12.47-5.5 12.47-12.27s-5.59-12.27-12.47-12.27c-6.88 0-12.47 5.5-12.47 12.27s5.59 12.27 12.47 12.27zm0-20.51c4.65 0 8.44 3.7 8.44 8.24s-3.79 8.24-8.44 8.24c-4.65 0-8.44-3.7-8.44-8.24s3.79-8.24 8.44-8.24z" id="path78"/><path d="M416.1 468.69c-6.88 0-12.47 5.5-12.47 12.27s5.59 12.27 12.47 12.27c6.88 0 12.47-5.5 12.47-12.27s-5.59-12.27-12.47-12.27zm0 20.51c-4.65 0-8.44-3.7-8.44-8.24s3.79-8.24 8.44-8.24c4.65 0 8.44 3.7 8.44 8.24s-3.79 8.24-8.44 8.24z" id="path79"/><path d="M387.46 430.28a11.99 11.99 0 0 0-1.04 4.9c0 6.76 5.59 12.27 12.47 12.27 6.88 0 12.47-5.5 12.47-12.27 0-2.5-.77-4.83-2.08-6.78 8.87-1.74 15.58-9.45 15.58-18.67 0-10.5-8.69-19.04-19.38-19.04s-19.38 8.54-19.38 19.04c0 .45.02.89.05 1.32-2.53 2.25-4.13 5.5-4.13 9.11 0 4.2 2.16 7.9 5.44 10.11zm11.43 13.14c-4.65 0-8.44-3.7-8.44-8.24s3.79-8.24 8.44-8.24c1.45 0 2.81.36 4 .99-.22.2-.45.39-.7.56.63.11 1.27.18 1.92.23 1.95 1.51 3.21 3.84 3.21 6.46 0 4.54-3.79 8.24-8.44 8.24zm6.59-48.7c8.46 0 15.35 6.74 15.35 15.01s-6.57 14.7-14.77 15c.58-1.41.9-2.95.9-4.56 0-6.76-5.59-12.27-12.47-12.27-1.52 0-2.97.27-4.32.76.56-7.78 7.21-13.94 15.3-13.94zm-10.99 17.21c4.65 0 8.44 3.7 8.44 8.24 0 1.14-.24 2.22-.67 3.21-1.08-.3-2.21-.46-3.38-.46-3.64 0-6.93 1.55-9.21 4.01-2.19-1.49-3.62-3.96-3.62-6.75 0-4.54 3.79-8.24 8.44-8.24z" id="path80"/></g></g><path d="M177.679 178.566c-6.133 0-11.107 4.885-11.107 10.92 0 6.034 4.979 10.92 11.107 10.92 6.129 0 11.116-4.886 11.116-10.92 0-6.035-4.978-10.92-11.116-10.92zm0 20.224c-.335 0-.67-.018-.997-.049v-9.215c0-.474-.094-.926-.291-1.347a3.628 3.628 0 0 0-.774-1.118 3.833 3.833 0 0 0-1.145-.765 3.489 3.489 0 0 0-1.382-.282c-.48 0-.944.085-1.378.273a3.6 3.6 0 0 0-1.132.752 3.55 3.55 0 0 0-.778 1.118 3.294 3.294 0 0 0-.287 1.37c0 .482.09.94.273 1.368.184.425.434.8.752 1.118.317.318.698.573 1.14.752.439.188.909.281 1.41.281.62 0 1.328-.2 2.129-.595v6.017c-4.03-1.065-7-4.683-7-8.987 0-5.14 4.24-9.304 9.46-9.304a9.2 9.2 0 0 1 .8.036v9.362c0 .474.104.926.292 1.351.192.425.447.8.774 1.118.326.314.71.573 1.145.76a3.493 3.493 0 0 0 2.76.005 3.747 3.747 0 0 0 1.14-.75 3.63 3.63 0 0 0 .774-1.119c.197-.425.29-.882.29-1.37a3.444 3.444 0 0 0-1.032-2.487 3.401 3.401 0 0 0-1.141-.75 3.523 3.523 0 0 0-1.41-.283c-.616 0-1.328.201-2.13.6v-6.21c4.135.998 7.204 4.666 7.204 9.037 0 5.14-4.241 9.31-9.466 9.31zm-2.465-9.264c0 .313-.053.595-.17.854a2.14 2.14 0 0 1-1.15 1.105 2.265 2.265 0 0 1-1.65-.018 1.91 1.91 0 0 1-.67-.45 2.095 2.095 0 0 1-.448-.677 2.019 2.019 0 0 1-.161-.814c0-.295.062-.56.17-.814a2.174 2.174 0 0 1 1.13-1.105 2.26 2.26 0 0 1 .816-.152c.304 0 .59.053.84.165.26.108.484.26.68.448.193.192.34.416.448.657.112.255.165.52.165.8zm4.729.054c0-.314.062-.595.17-.855a2.099 2.099 0 0 1 1.15-1.1 2.09 2.09 0 0 1 .813-.152 2.13 2.13 0 0 1 1.517.617c.183.201.33.42.438.675.108.255.16.52.16.815 0 .295-.052.56-.17.814a2.028 2.028 0 0 1-.46.657 2.098 2.098 0 0 1-1.484.608 2.17 2.17 0 0 1-.842-.165 2.214 2.214 0 0 1-.67-.452 2.043 2.043 0 0 1-.457-.657 1.975 1.975 0 0 1-.165-.8z" id="path81" style="fill:#0b2239;fill-rule:evenodd;stroke-width:.447332"/></svg>